<?xml version="1.0" encoding="UTF-8"?>
<svg id="katman_1" xmlns="http://www.w3.org/2000/svg" xmlns:xlink="http://www.w3.org/1999/xlink" version="1.1" viewBox="0 0 512 113.9">
  <!-- Generator: Adobe Illustrator 29.0.1, SVG Export Plug-In . SVG Version: 2.1.0 Build 192)  -->
  <defs>
    <style>
      .st0 {
        fill: none;
      }

      .st1 {
        fill: #2d2d2d;
      }

      .st2 {
        clip-path: url(#clippath);
      }
    </style>
    <clipPath id="clippath">
      <rect class="st0" x=".9" width="510.3" height="113.9"/>
    </clipPath>
  </defs>
  <g class="st2">
    <path class="st1" d="M453,109.5h0s-.1-.2-.1-.2v-.9l1.2-4.3c.4,0,.7.2,1.1.3l-.5,2.5c0,0,0,.2.1.2h0c0,0,.1,0,.2-.1l.5-2.5c1.6.3,3.3.5,5,.5v1.6c-.9,0-1,.5-1,.5v2h2.3v-2s0-.4-1-.5v-1.6c1.7,0,3.4-.2,5-.5l.5,2.5c0,0,0,.1.2.1h0c0,0,.1-.1.1-.2l-.5-2.5c.4,0,.7-.2,1.1-.3l1.7,6c-1.9,0-3.9-.2-5.9-.3-3.2-.1-6.5-.3-10-.4ZM404.1,103.4c.2-.3.6-.5,1.1-.5,0,0,.2,0,.2,0s.2,0,.2,0c1.7.2,1.6,2,1.6,2h-.2v.2h0v.2h.2v2.6c-1.1,0-2.1,0-3.2,0v-4.4ZM119.4,107.9c-6.8.2-13.5.4-19.9.6-3.3.1-6.6.2-9.8.3v-.8h-.7v-3.4c-.1,0,34.1-.4,34.1-.4v1.6c-.1,0,.7,0,.7,0v1.9c-1.5,0-3,0-4.4.1ZM44.2,79.3c.2-.2.2,0,.2.1s0,.2,0,.3c0,0,0,0,0,0,0,0,0,0,0,0,0-.1-.2-.2,0-.4ZM44.5,78.4s0,.3,0,.4-.3-.3,0-.4ZM45.8,78.8c0-.1,0-.4,0-.4.3.1,0,.5,0,.4ZM46,79.4c0-.2,0-.3.2-.1.2.2,0,.3,0,.4,0,0,0,0,0,0,0,0,0,0,0,0,0,0,0-.2,0-.3ZM84.1,72.3s0,0,0,.1l-18.6,21.1v-1.2c0,0,.3-.3.3-.6s0-.1,0-.2l18.3-19.3ZM84.3,72.6l-18.7,22.1v-.9s18.6-21.2,18.6-21.2c0,0,0,0,0,0ZM84.4,72.9l-18.7,24.8v-2.8s18.7-22.1,18.7-22.1c0,0,0,0,0,0ZM84.5,73.1l-18.8,25.5v-.7s18.8-24.9,18.8-24.9c0,0,0,0,0,0ZM84.6,73.3l-18.9,29.2v-3.7s18.9-25.6,18.9-25.6c0,0,0,0,0,.1ZM84.8,73.5l-18.5,29.4h-.5s0-.1,0-.1l19-29.3s0,0,0,0ZM84.9,73.7l-15.7,29h-2.8c0,.1,18.4-29.1,18.4-29.1,0,0,0,0,0,.1ZM85.1,73.9l-15,28.8h-.7s15.6-28.9,15.6-28.9h0ZM85.2,74v1c-.1,0-11,27.5-11,27.5l-3.9.2,14.9-28.7s0,0,0,0ZM86.5,74.1l.7,27.8-3.3.2,2.6-27.9ZM87.3,108h-4s.3-3.3.3-3.3h3.6s0,3.3,0,3.3ZM87.6,74.6l16.4,26.5-15.2.7-1.2-27.2ZM74.3,102.5l10.7-26.9-3.2,26.6-7.5.4ZM67.4,109.5h-1.4c0-.2,0-.4-.2-.5,0,0,0,0,0-.1,0,0,0-.2,0-.3v-3.7s15.7-.1,15.7-.1l-.4,3.3h-.6s-.2,1.2-.2,1.2c-4.4.2-8.7.3-12.8.5h0c0,0,0-.1,0-.1ZM107.7,100.9l-3.5.2-16.6-26.8v-.3s20.1,26.9,20.1,26.9ZM88,73.2l31.5,27.1-11.6.6-20.3-27.1c.1-.2.3-.4.4-.6ZM88.1,73l34.1,27.2h-2.5c0,.1-31.6-27.1-31.6-27.1,0,0,0,0,0,0ZM88.3,72.5l35.7,20.4-.6,7.2h-1.1c0,0-34.2-27.2-34.2-27.2,0-.1.1-.3.2-.4ZM88.4,72.3l35.7,19.1v1.3c0,0-35.7-20.4-35.7-20.4,0,0,0,0,0,0ZM88.7,71.6l36.8,16.1v.7h-1.2l-.2,2.9-35.7-19.1c0-.2.2-.4.2-.6ZM88.7,71.4l36.9,15.3v.4s-.1-.4-.1.2h0c0,.1-36.8-15.9-36.8-15.9,0,0,0,0,0,0ZM88.9,70.9l36.9,12.7v.9c0,0,0,.4,0,.7,0,.3,0,.5,0,.5v.5h-.1v.5l-36.8-15.3c0-.2.1-.3.1-.4ZM125.8,82.7v.2s0,0,0,0v.5l-36.4-12.5,36.3,11.8ZM134.1,86.3l-.6-.2v-.4s0-.2,0-.4l.6.2v.8ZM178.2,81.9c.3.2.3.8.3.8v2.1h-.3v-2.9s0,0,0,0ZM178.8,88.7c.4.1.4.9.4.9v.7h-.9v-.7s0-.8.4-.9ZM178.7,82.7s0-.7.3-.8c.3.2.3.8.3.8v2.1h-.5v-2.1ZM179.3,75.8h.9v1.9h-.9v-1.9ZM179.3,74.8s0-.8.4-.9c.4.1.4.9.4.9v.7h-.9v-.7ZM179.1,99.6v.6l-.8-.4v-.2h.8ZM179.1,96.2v1.4h-.8v-1.4h.8ZM179.1,95.1v.8h-.8v-.8h.8ZM179.2,92.4h-.9v-1.9h.9v1.9ZM133.6,86.2l.5.2v2h-.4v-1c0-.6-.1-.2-.1-.2v-1h0ZM180.4,104.5c1.5,0,1.5,1.3,1.5,1.3v.8c-1,0-2,0-3,0v-.8s0-1.3,1.5-1.3ZM180.6,75.8h.9v1.9h-.9v-1.9ZM180.6,74.8s0-.8.4-.9c.4.1.4.9.4.9v.7h-.9v-.7ZM181.9,81.9c.3.2.3.8.3.8v2.1h-.5v-2.1s0-.7.3-.8ZM182.5,89.5v.7h-.9v-.7s0-.8.4-.9c.4.1.4.9.4.9ZM182.7,81.9c.3.2.3.8.3.8v2.1h-.5v-2.1s0-.7.3-.8ZM183.3,88.7c.4.1.4.9.4.9v.7h-.9v-.7s0-.8.4-.9ZM183.5,81.9c.3.2.3.8.3.8v2.1h-.5v-2.1s0-.7.3-.8ZM183.6,100.6v1.4h-.8v-1.4h.8ZM183.6,99.6v.8h-.8v-.8h.8ZM183.6,96.2v1.4h-.8v-1.4h.8ZM182.9,92.4v-1.9h.9v1.9h-.9ZM183.6,95.1v.8h-.8v-.8h.8ZM181.8,100.6h.8v1.4h-.8v-1.4ZM182.5,92.4h-.9v-1.9h.9v1.9ZM181.8,96v-.8h.8v.8h-.8ZM182.5,99.6v.8h-.8v-.8h.8ZM181.8,97.6v-1.4h.8v1.4h-.8ZM188.4,99.8c1.5.5,1.5,2,1.5,2v4.6c-1,0-1.9,0-2.9,0v-4.7s0-1.5,1.5-2ZM187.8,82.4c.3.2.3.8.3.8v1.9h-.5v-1.9s0-.6.3-.8ZM188.3,89.9v.7h-.8v-.7s0-.7.4-.8c.4.1.4.8.4.8ZM188.1,76.2l.4-1,.4,1v.8h-.8v-.8ZM188.7,92.6v-1.7h.8v1.7h-.8ZM188.7,96v-.8h.7v.8h-.7ZM188.7,96.2h.7v1.3h-.7v-1.3ZM188.5,82.4c.3.2.3.8.3.8v1.9h-.5v-1.9s0-.6.3-.8ZM187.7,96v-.8h.7v.8h-.7ZM187.6,92.6v-1.7h.8v1.7h-.8ZM187.7,96.2h.7v1.3h-.7v-1.3ZM189.1,89.1c.4.1.4.8.4.8v.7h-.8v-.7s0-.7.4-.8ZM189.3,82.4c.3.2.3.8.3.8v1.9h-.5v-1.9s0-.6.2-.8ZM192,99.8c1.5.5,1.5,2,1.5,2v4.6c-1,0-1.9,0-2.9,0v-4.6s0-1.5,1.5-2ZM191.4,82.4c.3.2.3.8.3.8v1.9h-.5v-1.9s0-.6.3-.8ZM192,89.9v.7h-.8v-.7s0-.7.4-.8c.4.1.4.8.4.8ZM191.7,76.2l.4-1,.4,1v.8h-.8v-.8ZM192.4,92.6v-1.7h.8v1.7h-.8ZM192.3,96v-.8h.7v.8h-.7ZM192.3,96.2h.7v1.3h-.7v-1.3ZM192.1,82.4c.3.2.3.8.3.8v1.9h-.5v-1.9s0-.6.3-.8ZM191.3,96v-.8h.7v.8h-.7ZM191.2,92.6v-1.7h.8v1.7h-.8ZM191.3,96.2h.7v1.3h-.7v-1.3ZM192.7,89.1c.4.1.4.8.4.8v.7h-.8v-.7s0-.7.4-.8ZM192.9,82.4c.3.2.3.8.3.8v1.9h-.5v-1.9s0-.6.3-.8ZM195.6,99.8c1.5.5,1.5,2,1.5,2v4.5c-.2,0-.3,0-.5,0-.8,0-1.6,0-2.4,0v-4.6s0-1.5,1.5-2ZM195,82.4c.3.2.3.8.3.8v1.9h-.5v-1.9s0-.6.3-.8ZM195.6,89.9v.7h-.8v-.7s0-.7.4-.8c.4.1.4.8.4.8ZM195.3,76.2l.4-1,.4,1v.8h-.8v-.8ZM196,92.6v-1.7h.8v1.7h-.8ZM195.9,96v-.8h.7v.8h-.7ZM195.9,96.2h.7v1.3h-.7v-1.3ZM195.8,82.4c.3.2.3.8.3.8v1.9h-.5v-1.9s0-.6.3-.8ZM194.9,96v-.8h.7v.8h-.7ZM194.8,92.6v-1.7h.8v1.7h-.8ZM194.9,96.2h.7v1.3h-.7v-1.3ZM196.4,89.1c.4.1.4.8.4.8v.7h-.8v-.7s0-.7.4-.8ZM196.2,83.2s0-.6.3-.8c.3.2.3.8.3.8v1.9h-.5v-1.9ZM199.3,99.8c1.5.5,1.5,2,1.5,2v4.5c-1,0-1.9,0-2.9,0v-4.5s0-1.5,1.5-2ZM198.6,82.4c.3.2.3.8.3.8v1.9h-.5v-1.9s0-.6.3-.8ZM199.2,89.9v.7h-.8v-.7s0-.7.4-.8c.4.1.4.8.4.8ZM199,76.2l.4-1,.4,1v.8h-.8v-.8ZM199.6,92.6v-1.7h.8v1.7h-.8ZM199.5,96v-.8h.7v.8h-.7ZM199.5,96.2h.7v1.3h-.7v-1.3ZM199.4,82.4c.3.2.3.8.3.8v1.9h-.5v-1.9s0-.6.3-.8ZM198.6,96v-.8h.7v.8h-.7ZM198.4,92.6v-1.7h.8v1.7h-.8ZM198.6,96.2h.7v1.3h-.7v-1.3ZM200,89.1c.4.1.4.8.4.8v.7h-.8v-.7s0-.7.4-.8ZM200.1,82.4c.3.2.2.8.2.8v1.9h-.5v-1.9s0-.6.3-.8ZM202.9,99.8c1.5.5,1.5,2,1.5,2v4.5h-2.9s0-4.5,0-4.5c0,0,0-1.5,1.5-2ZM202.3,82.4c.3.2.3.8.3.8v1.9h-.5v-1.9s0-.6.3-.8ZM202.8,89.9v.7h-.8v-.7s0-.7.4-.8c.4.1.4.8.4.8ZM202.6,76.2l.4-1,.4,1v.8h-.8v-.8ZM203.2,92.6v-1.7h.8v1.7h-.8ZM203.1,96v-.8h.7v.8h-.7ZM203.1,96.2h.7v1.3h-.7v-1.3ZM203,82.4c.3.2.3.8.3.8v1.9h-.5v-1.9s0-.6.3-.8ZM202.2,96v-.8h.7v.8h-.7ZM202,92.6v-1.7h.8v1.7h-.8ZM202.2,96.2h.7v1.3h-.7v-1.3ZM203.6,89.1c.4.1.4.8.4.8v.7h-.8v-.7s0-.7.4-.8ZM203.7,82.4c.3.2.3.8.3.8v1.9h-.5v-1.9s0-.6.3-.8ZM206.5,99.8c1.5.5,1.5,2,1.5,2v4.4c-1,0-1.9,0-2.9,0v-4.5s0-1.5,1.5-2ZM205.9,82.4c.3.2.3.8.3.8v1.9h-.5v-1.9s0-.6.3-.8ZM206.4,89.9v.7h-.8v-.7s0-.7.4-.8c.4.1.4.8.4.8ZM206.2,76.2l.4-1,.4,1v.8h-.8v-.8ZM206.8,92.6v-1.7h.8v1.7h-.8ZM206.8,96v-.8h.7v.8h-.7ZM206.8,96.2h.7v1.3h-.7v-1.3ZM206.6,82.4c.3.2.3.8.3.8v1.9h-.5v-1.9s0-.6.3-.8ZM205.8,96v-.8h.7v.8h-.7ZM205.6,92.6v-1.7h.8v1.7h-.8ZM205.8,96.2h.7v1.3h-.7v-1.3ZM207.2,89.1c.4.1.4.8.4.8v.7h-.8v-.7s0-.7.4-.8ZM207.3,82.4c.3.2.3.8.3.8v1.9h-.5v-1.9s0-.6.3-.8ZM212,99.9c1.9.5,1.8,2.3,1.8,2.3v4c-1.2,0-2.4,0-3.6,0v-4s0-1.8,1.8-2.3ZM212.2,91.4v-4.6s0-.9.7-1c.6.1.7,1,.7,1v4.6h-1.4ZM212.2,95.3v-.9h.9v.9h-.9ZM212.2,95.6h.9v1.6h-.9v-1.6ZM211.3,85.5s.3-.3.8-.4c.5,0,.8.4.8.4,0,0-.6.1-.8.8-.2-.7-.8-.8-.8-.8ZM211,95.3v-.9h.9v.9h-.9ZM210.5,91.4v-4.6s0-.9.7-1c.6.1.7,1,.7,1v4.6h-1.4ZM211,95.6h.9v1.6h-.9v-1.6ZM210.6,83.4c.1,0,.2,0,.3.1,0,0,0,0,0,0,0,0-.1-.2-.1-.3,0-.2.2-.3.3-.3s.3.1.3.3,0,.2-.1.3c0,0,0,0,0,0,0,0,.2-.1.3-.1.2,0,.3.1.3.3,0-.2.1-.3.3-.3s.2,0,.3.1c0,0,0,0,0,0,0,0-.1-.2-.1-.3,0-.2.1-.3.3-.3s.3.1.3.3,0,.2-.1.3c0,0,0,0,0,0,0,0,.2-.1.3-.1.2,0,.3.1.3.3s-.1.3-.3.3-.2,0-.3-.1c0,0,0,0,0,0,0,0,.1.2.1.3,0,.2-.1.3-.3.3s-.3-.2-.3-.3,0-.2.1-.3c0,0,0,0,0,0,0,0-.2.1-.3.1-.2,0-.3-.2-.3-.3,0,.2-.1.3-.3.3s-.2,0-.3-.1c0,0,0,0,0,0,0,0,.1.2.1.3,0,.2-.2.3-.3.3s-.3-.2-.3-.3,0-.2.1-.3c0,0,0,0,0,0,0,0-.2.1-.3.1-.2,0-.3-.2-.3-.3s.2-.3.3-.3ZM210.6,61.6c.2,0,.2.4.2.4v4h-.4v-4s0-.4.2-.4ZM210.8,54.1h.4v2.6h-.4v-2.6ZM211.1,50.5h.3v2h-.3v-2ZM212.4,83c0,.2-.1.3-.3.3s-.3-.1-.3-.3,0-.2.1-.3c0,0,0,0,0,0,0,0-.2.1-.3.1-.2,0-.3-.2-.3-.3s.1-.3.3-.3.2,0,.3.1c0,0,0,0,0,0,0,0-.1-.2-.1-.3,0-.2.1-.3.3-.3s.3.1.3.3,0,.2-.1.3c0,0,0,0,0,0,0,0,.2-.1.3-.1.2,0,.3.2.3.3s-.1.3-.3.3-.2,0-.3-.1c0,0,0,0,0,0,0,0,.1.2.1.3ZM212,71.6c1.1.2,1,1.3,1,1.3v3.6h-2v-3.6s0-1.1,1-1.3ZM211.8,67.5s0,0,0,0c0,0,0,0,.1,0,.3,0,.2.3.2.3v.6h-.5v-.6s0,0,0-.2ZM212,61.3s0,0,0,0c0,0,0,0,0,0,0,0,0,0,0,0,0,0,0,0,0,0,0,0,0,.2,0,.2v4h-.5v-4s0-.4.3-.4ZM211.9,57.6h0c0,0,0,0,0-.1,0,0,0,0,0,0,0,0,0,0,.1,0s0,0,.1,0c0,0,0,0,0,0,0,0,0,0,0,0,0,0,0,0,0,0v.5h-.4v-.5ZM211.9,53.9h.4v2.6h-.4v-2.6ZM211.9,50.5h.4v2h-.4v-2ZM212.7,50.5h.3v2h-.3v-2ZM213.3,54.1v2.6h-.3v-2.6h.3ZM213.5,61.6c.3,0,.2.4.2.4v4h-.4v-4s0-.4.2-.4ZM217.4,99.9c1.8.5,1.7,2.3,1.7,2.3v3.9c-1.2,0-2.3,0-3.5,0v-4s0-1.8,1.7-2.3ZM217.7,91.4v-4.6s0-.9.7-1c.6.1.7,1,.7,1v4.6h-1.3ZM217.7,95.3v-.9h.8v.9h-.8ZM217.7,95.6h.8v1.6h-.8v-1.6ZM216.8,85.5s.3-.3.8-.4c.5,0,.8.4.8.4,0,0-.5.1-.8.8-.2-.7-.8-.8-.8-.8ZM216.6,95.3v-.9h.8v.9h-.8ZM216.1,91.4v-4.6s0-.9.7-1c.6.1.7,1,.7,1v4.6h-1.3ZM216.6,95.6h.8v1.6h-.8v-1.6ZM216.2,83.4c.1,0,.2,0,.3.1,0,0,0,0,0,0,0,0-.1-.2-.1-.3,0-.2.1-.3.3-.3s.3.1.3.3,0,.2-.1.3c0,0,0,0,0,0,0,0,.2-.1.3-.1.2,0,.3.1.3.3,0-.2.1-.3.3-.3s.2,0,.3.1c0,0,0,0,0,0,0,0-.1-.2-.1-.3,0-.2.1-.3.3-.3s.3.1.3.3,0,.2-.1.3c0,0,0,0,0,0,0,0,.2-.1.3-.1.2,0,.3.1.3.3s-.1.3-.3.3-.2,0-.3-.1c0,0,0,0,0,0,0,0,.1.2.1.3,0,.2-.1.3-.3.3s-.3-.2-.3-.3,0-.2.1-.3c0,0,0,0,0,0,0,0-.2.1-.3.1-.2,0-.3-.2-.3-.3,0,.2-.1.3-.3.3s-.2,0-.3-.1c0,0,0,0,0,0,0,0,.1.2.1.3,0,.2-.1.3-.3.3s-.3-.2-.3-.3,0-.2.1-.3c0,0,0,0,0,0,0,0-.2.1-.3.1-.2,0-.3-.2-.3-.3s.1-.3.3-.3ZM217,73.5c.4.1.4.7.4.7v1.8h-.8v-1.8s0-.6.4-.7ZM217.9,81.9c0,.1,0,.2-.1.3,0,0,0,0,0,0,0,0,.2-.1.3-.1.2,0,.3.2.3.3s-.1.3-.3.3-.2,0-.3-.1c0,0,0,0,0,0,0,0,.1.2.1.3,0,.2-.1.3-.3.3s-.3-.1-.3-.3,0-.2.1-.3c0,0,0,0,0,0,0,0-.2.1-.3.1-.2,0-.3-.2-.3-.3s.1-.3.3-.3.2,0,.3.1c0,0,0,0,0,0,0,0-.1-.2-.1-.3,0-.2.1-.3.3-.3s.3.1.3.3ZM217.7,74.2s0-.6.4-.7c.4.1.4.7.4.7v1.8h-.8v-1.8ZM221.4,99.9c1.8.5,1.7,2.3,1.7,2.3v3.9c-1.2,0-2.3,0-3.5,0v-3.9s0-1.8,1.7-2.3ZM221.8,91.4v-4.6s0-.9.7-1c.6.1.7,1,.7,1v4.6h-1.3ZM221.8,95.3v-.9h.8v.9h-.8ZM221.8,95.6h.8v1.6h-.8v-1.6ZM220.8,85.5s.3-.3.8-.4c.5,0,.8.4.8.4,0,0-.5.1-.8.8-.2-.7-.8-.8-.8-.8ZM220.6,95.3v-.9h.8v.9h-.8ZM220.1,91.4v-4.6s0-.9.7-1c.6.1.7,1,.7,1v4.6h-1.3ZM220.6,95.6h.8v1.6h-.8v-1.6ZM220.2,83.4c.1,0,.2,0,.3.1,0,0,0,0,0,0,0,0-.1-.2-.1-.3,0-.2.1-.3.3-.3s.3.1.3.3,0,.2-.1.3c0,0,0,0,0,0,0,0,.2-.1.3-.1.2,0,.3.1.3.3,0-.2.1-.3.3-.3s.2,0,.3.1c0,0,0,0,0,0,0,0-.1-.2-.1-.3,0-.2.1-.3.3-.3s.3.1.3.3,0,.2-.1.3c0,0,0,0,0,0,0,0,.2-.1.3-.1.2,0,.3.1.3.3s-.1.3-.3.3-.2,0-.3-.1c0,0,0,0,0,0,0,0,.1.2.1.3,0,.2-.1.3-.3.3s-.3-.2-.3-.3,0-.2.1-.3c0,0,0,0,0,0,0,0-.1.1-.3.1-.2,0-.3-.2-.3-.3,0,.2-.1.3-.3.3s-.2,0-.3-.1c0,0,0,0,0,0,0,0,.1.2.1.3,0,.2-.1.3-.3.3s-.3-.2-.3-.3,0-.2.1-.3c0,0,0,0,0,0,0,0-.2.1-.3.1-.2,0-.3-.2-.3-.3s.1-.3.3-.3ZM221,73.5c.4.1.4.7.4.7v1.8h-.8v-1.8s0-.6.4-.7ZM221.4,68.9l.3.8h-.7l.3-.8ZM221.9,83c0,.2-.1.3-.3.3s-.3-.1-.3-.3,0-.2.1-.3c0,0,0,0,0,0,0,0-.2.1-.3.1-.2,0-.3-.2-.3-.3s.1-.3.3-.3.2,0,.3.1c0,0,0,0,0,0,0,0-.1-.2-.1-.3,0-.2.1-.3.3-.3s.3.1.3.3,0,.2-.1.3c0,0,0,0,0,0,0,0,.2-.1.3-.1.2,0,.3.2.3.3s-.1.3-.3.3-.2,0-.3-.1c0,0,0,0,0,0,0,0,.1.2.1.3ZM222.2,73.5c.4.1.4.7.4.7v1.8h-.8v-1.8s0-.6.4-.7ZM223.5,65l.3.8h-.7l.3-.8ZM224.3,83.4c.1,0,.2,0,.3.1,0,0,0,0,0,0,0,0-.1-.2-.1-.3,0-.2.1-.3.3-.3s.3.1.3.3,0,.2-.1.3c0,0,0,0,0,0,0,0,.2-.1.3-.1.2,0,.3.1.3.3,0-.2.1-.3.3-.3s.2,0,.3.1c0,0,0,0,0,0,0,0-.1-.2-.1-.3,0-.2.1-.3.3-.3s.3.1.3.3,0,.2-.1.3c0,0,0,0,0,0,0,0,.2-.1.3-.1.2,0,.3.1.3.3s-.1.3-.3.3-.2,0-.3-.1c0,0,0,0,0,0,0,0,.1.2.1.3,0,.2-.1.3-.3.3s-.3-.2-.3-.3,0-.2.1-.3c0,0,0,0,0,0,0,0-.2.1-.3.1-.2,0-.3-.2-.3-.3,0,.2-.1.3-.3.3s-.2,0-.3-.1c0,0,0,0,0,0,0,0,.1.2.1.3,0,.2-.1.3-.3.3s-.3-.2-.3-.3,0-.2.1-.3c0,0,0,0,0,0,0,0-.2.1-.3.1-.2,0-.3-.2-.3-.3s.1-.3.3-.3ZM225,73.5c.4.1.4.7.4.7v1.8h-.8v-1.8s0-.6.4-.7ZM225.4,68.9l.3.8h-.7l.3-.8ZM225.9,83c0,.2-.1.3-.3.3s-.3-.1-.3-.3,0-.2.1-.3c0,0,0,0,0,0,0,0-.2.1-.3.1-.2,0-.3-.2-.3-.3s.1-.3.3-.3.2,0,.3.1c0,0,0,0,0,0,0,0-.1-.2-.1-.3,0-.2.1-.3.3-.3s.3.1.3.3,0,.2-.1.3c0,0,0,0,0,0,0,0,.2-.1.3-.1.2,0,.3.2.3.3s-.1.3-.3.3-.2,0-.3-.1c0,0,0,0,0,0,0,0,.1.2.1.3ZM225.8,74.2s0-.6.4-.7c.4.1.4.7.4.7v1.8h-.8v-1.8ZM230.8,99.9c1.9.5,1.8,2.3,1.8,2.3v3.9c-1.2,0-2.4,0-3.6,0v-3.9s0-1.8,1.8-2.3ZM231,91.4v-4.6s0-.9.7-1c.6.1.7,1,.7,1v4.6h-1.4ZM231,95.3v-.9h.9v.9h-.9ZM231,95.6h.9v1.6h-.9v-1.6ZM230,85.5s.3-.3.8-.4c.5,0,.8.4.8.4,0,0-.6.1-.8.8-.2-.7-.8-.8-.8-.8ZM229.2,91.4v-4.6s0-.9.7-1c.6.1.7,1,.7,1v4.6h-1.4ZM230.6,95.6v1.6h-.9v-1.6h.9ZM229.8,95.3v-.9h.9v.9h-.9ZM229.4,83.4c.1,0,.2,0,.3.1,0,0,0,0,0,0,0,0-.1-.2-.1-.3,0-.2.1-.3.3-.3s.3.1.3.3,0,.2-.1.3c0,0,0,0,0,0,0,0,.2-.1.3-.1.2,0,.3.1.3.3,0-.2.1-.3.3-.3s.2,0,.3.1c0,0,0,0,0,0,0,0-.1-.2-.1-.3,0-.2.1-.3.3-.3s.3.1.3.3,0,.2-.1.3c0,0,0,0,0,0,0,0,.2-.1.3-.1.2,0,.3.1.3.3s-.1.3-.3.3-.2,0-.3-.1c0,0,0,0,0,0,0,0,.1.2.1.3,0,.2-.1.3-.3.3s-.3-.2-.3-.3,0-.2.1-.3c0,0,0,0,0,0,0,0-.2.1-.3.1-.2,0-.3-.2-.3-.3,0,.2-.1.3-.3.3s-.2,0-.3-.1c0,0,0,0,0,0,0,0,.1.2.1.3,0,.2-.1.3-.3.3s-.3-.2-.3-.3,0-.2.1-.3c0,0,0,0,0,0,0,0-.2.1-.3.1-.2,0-.3-.2-.3-.3s.1-.3.3-.3ZM229.4,61.6c.3,0,.2.4.2.4v4h-.4v-4s0-.4.2-.4ZM229.5,54.1h.3v2.6h-.3v-2.6ZM229.9,50.5h.3v2h-.3v-2ZM231.1,83c0,.2-.2.3-.3.3s-.3-.1-.3-.3,0-.2.1-.3c0,0,0,0,0,0,0,0-.2.1-.3.1-.2,0-.3-.2-.3-.3s.1-.3.3-.3.2,0,.3.1c0,0,0,0,0,0,0,0-.1-.2-.1-.3,0-.2.1-.3.3-.3s.3.1.3.3,0,.2-.1.3c0,0,0,0,0,0,0,0,.2-.1.3-.1.2,0,.3.2.3.3s-.1.3-.3.3-.2,0-.3-.1c0,0,0,0,0,0,0,0,.1.2.1.3ZM230.8,71.6c1.1.2,1,1.3,1,1.3v3.6h-2v-3.6s0-1.1,1-1.3ZM230.6,67.5s0,0,0,0c0,0,0,0,.2,0s0,0,0,0c0,0,0,0,0,0s0,0,0,0c0,0,0,.1,0,.1v.6h-.5v-.6s0,0,0-.2ZM230.6,61.4s0,0,.1,0c0,0,0,0,0,0s0,0,0,0c0,0,0,0,.1,0,.1.1,0,.3,0,.3v4h-.5v-4s0-.2,0-.3ZM230.8,57.4c.2,0,.2.2.2.2v.5h-.4v-.5s0-.2.2-.2ZM230.6,53.9h.4v2.6h-.4v-2.6ZM230.6,50.5h.4v2h-.4v-2ZM231.4,50.5h.3v2h-.3v-2ZM232.1,54.1v2.6h-.3v-2.6h.3ZM232.2,61.6c.3,0,.2.4.2.4v4h-.4v-4s0-.4.2-.4ZM236.2,99.9c1.8.5,1.7,2.3,1.7,2.3v3.8c-1.2,0-2.3,0-3.5,0v-3.8s0-1.8,1.7-2.3ZM236.5,91.4v-4.6s0-.9.7-1c.6.1.7,1,.7,1v4.6h-1.3ZM236.5,95.3v-.9h.8v.9h-.8ZM236.5,95.6h.8v1.6h-.8v-1.6ZM235.6,85.5s.3-.3.8-.4c.5,0,.8.4.8.4,0,0-.5.1-.8.8-.2-.7-.8-.8-.8-.8ZM235.4,95.3v-.9h.8v.9h-.8ZM234.9,91.4v-4.6s0-.9.7-1c.6.1.7,1,.7,1v4.6h-1.3ZM235.4,95.6h.8v1.6h-.8v-1.6ZM235,83.4c.1,0,.2,0,.3.1,0,0,0,0,0,0,0,0-.1-.2-.1-.3,0-.2.1-.3.3-.3s.3.1.3.3,0,.2-.1.3c0,0,0,0,0,0,0,0,.2-.1.3-.1.2,0,.3.1.3.3,0-.2.1-.3.3-.3s.2,0,.3.1c0,0,0,0,0,0,0,0-.1-.2-.1-.3,0-.2.1-.3.3-.3s.3.1.3.3,0,.2-.1.3c0,0,0,0,0,0,0,0,.2-.1.3-.1.2,0,.3.1.3.3s-.1.3-.3.3-.2,0-.3-.1c0,0,0,0,0,0,0,0,.1.2.1.3,0,.2-.1.3-.3.3s-.3-.2-.3-.3,0-.2.1-.3c0,0,0,0,0,0,0,0-.2.1-.3.1-.2,0-.3-.2-.3-.3,0,.2-.1.3-.3.3s-.2,0-.3-.1c0,0,0,0,0,0,0,0,.1.2.1.3,0,.2-.1.3-.3.3s-.3-.2-.3-.3,0-.2.1-.3c0,0,0,0,0,0,0,0-.2.1-.3.1-.2,0-.3-.2-.3-.3s.1-.3.3-.3ZM235.8,73.5c.4.1.4.7.4.7v1.8h-.8v-1.8s0-.6.4-.7ZM236.2,68.9l.3.8h-.7l.3-.8ZM236.7,83c0,.2-.1.3-.3.3s-.3-.1-.3-.3,0-.2.1-.3c0,0,0,0,0,0,0,0-.2.1-.3.1-.2,0-.3-.2-.3-.3s.1-.3.3-.3.2,0,.3.1c0,0,0,0,0,0,0,0-.1-.2-.1-.3,0-.2.1-.3.3-.3s.3.1.3.3,0,.2-.1.3c0,0,0,0,0,0,0,0,.2-.1.3-.1.2,0,.3.2.3.3s-.1.3-.3.3-.2,0-.3-.1c0,0,0,0,0,0,0,0,.1.2.1.3ZM237,73.5c.4.1.4.7.4.7v1.8h-.8v-1.8s0-.6.4-.7ZM238.3,65l.3.8h-.7l.3-.8ZM239,83.4c.1,0,.2,0,.3.1,0,0,0,0,0,0,0,0-.1-.2-.1-.3,0-.2.1-.3.3-.3s.3.1.3.3,0,.2-.1.3c0,0,0,0,0,0,0,0,.1-.1.3-.1.2,0,.3.1.3.3,0-.2.1-.3.3-.3s.2,0,.3.1c0,0,0,0,0,0,0,0-.1-.2-.1-.3,0-.2.1-.3.3-.3s.3.1.3.3,0,.2-.1.3c0,0,0,0,0,0,0,0,.2-.1.3-.1.2,0,.3.1.3.3s-.1.3-.3.3-.2,0-.3-.1c0,0,0,0,0,0,0,0,.1.2.1.3,0,.2-.1.3-.3.3s-.3-.2-.3-.3,0-.2.1-.3c0,0,0,0,0,0,0,0-.2.1-.3.1-.2,0-.3-.2-.3-.3,0,.2-.1.3-.3.3s-.2,0-.3-.1c0,0,0,0,0,0,0,0,.1.2.1.3,0,.2-.1.3-.3.3s-.3-.2-.3-.3,0-.2.1-.3c0,0,0,0,0,0,0,0-.2.1-.3.1-.2,0-.3-.2-.3-.3s.1-.3.3-.3ZM239.8,73.5c.4.1.4.7.4.7v1.8h-.8v-1.8s0-.6.4-.7ZM240.2,68.9l.3.8h-.6l.3-.8ZM240.7,83c0,.2-.1.3-.3.3s-.3-.1-.3-.3,0-.2.1-.3c0,0,0,0,0,0,0,0-.2.1-.3.1-.2,0-.3-.2-.3-.3s.1-.3.3-.3.2,0,.3.1c0,0,0,0,0,0,0,0-.1-.2-.1-.3,0-.2.1-.3.3-.3s.3.1.3.3,0,.2-.1.3c0,0,0,0,0,0,0,0,.2-.1.3-.1.2,0,.3.2.3.3s-.1.3-.3.3-.2,0-.3-.1c0,0,0,0,0,0,0,0,.1.2.1.3ZM240.6,74.2s0-.6.4-.7c.4.1.4.7.4.7v1.8h-.8v-1.8ZM242.3,65l.3.8h-.7l.3-.8ZM243.1,83.4c.1,0,.2,0,.3.1,0,0,0,0,0,0,0,0-.1-.2-.1-.3,0-.2.1-.3.3-.3s.3.1.3.3,0,.2-.1.3c0,0,0,0,0,0,0,0,.2-.1.3-.1.2,0,.3.1.3.3,0-.2.1-.3.3-.3s.2,0,.3.1c0,0,0,0,0,0,0,0-.1-.2-.1-.3,0-.2.1-.3.3-.3s.3.1.3.3,0,.2-.1.3c0,0,0,0,0,0,0,0,.2-.1.3-.1.2,0,.3.1.3.3s-.1.3-.3.3-.2,0-.3-.1c0,0,0,0,0,0,0,0,.1.2.1.3,0,.2-.1.3-.3.3s-.3-.2-.3-.3,0-.2.1-.3c0,0,0,0,0,0,0,0-.2.1-.3.1-.2,0-.3-.2-.3-.3,0,.2-.1.3-.3.3s-.2,0-.3-.1c0,0,0,0,0,0,0,0,.1.2.1.3,0,.2-.1.3-.3.3s-.3-.2-.3-.3,0-.2.1-.3c0,0,0,0,0,0,0,0-.2.1-.3.1-.2,0-.3-.2-.3-.3s.1-.3.3-.3ZM243.8,73.5c.4.1.4.7.4.7v1.8h-.8v-1.8s0-.6.4-.7ZM244.2,68.9l.3.8h-.6l.3-.8ZM244.7,83c0,.2-.1.3-.3.3s-.3-.1-.3-.3,0-.2.1-.3c0,0,0,0,0,0,0,0-.2.1-.3.1-.2,0-.3-.2-.3-.3s.1-.3.3-.3.2,0,.3.1c0,0,0,0,0,0,0,0-.1-.2-.1-.3,0-.2.1-.3.3-.3s.3.1.3.3,0,.2-.1.3c0,0,0,0,0,0,0,0,.2-.1.3-.1.2,0,.3.2.3.3s-.1.3-.3.3-.2,0-.3-.1c0,0,0,0,0,0,0,0,.1.2.1.3ZM244.6,74.2s0-.6.4-.7c.4.1.4.7.4.7v1.8h-.8v-1.8ZM247.8,30.8s.2,0,.2-.2c0,.1.2.2.2.2v3.1h-.3v-3.1ZM248.5,30.6s.2,0,.2-.2c0,.1.2.2.2.2v3.3h-.3v-3.3ZM249.2,30.8s.2,0,.2-.2c0,.1.2.2.2.2v3.1h-.3v-3.1ZM250.3,25.4c.3.1.3.8.3.8h0v.2h-.6v-.2h0s0-.7.3-.8ZM252.6,37.5c1.1,0,2,.9,2,2s-.9,2-2,2-2-.9-2-2,.9-2,2-2ZM251.1,16.4s0-.6.2-.7c.2.1.2.7.2.7v3.6h-.5c0,.1,0-3.6,0-3.6ZM251.5,10.9s0-.4.2-.5c.2.1.2.5.2.5v2.6h-.3c0,0,0-2.6,0-2.6ZM253.1,28.7v4.4h-1.1v-4.4h1.1ZM252.6,24.5c.6.1.6.9.6.9h0v.2h-1v-.2h0s0-.8.5-.9ZM252.2,17.9h.7v2.1h-.7v-2.1ZM252.2,16.1h.7v1.7h-.7v-1.7ZM252.6,15.2c.3.2.3.8.3.8h-.7s0-.6.3-.8ZM252.3,10.7s0-.5.3-.6c.3.1.3.6.3.6v2.8h-.5v-2.8ZM253.4,10.9s0-.4.2-.5c.2.1.2.5.2.5v2.7h-.4v-2.7ZM254.1,16.4v3.7h-.5v-3.7s0-.6.2-.7c.2.1.2.7.2.7ZM254.9,25.4c.3.1.3.8.3.8h0v.2h-.6v-.2h0s0-.7.3-.8ZM255.7,30.8s.2,0,.2-.2c0,.1.2.2.2.2v3.1h-.3v-3.1ZM256.4,30.6s.2,0,.2-.2c0,.1.2.2.2.2v3.3h-.3v-3.3ZM257.1,30.8s.2,0,.2-.2c0,.1.2.2.2.2v3.1h-.3v-3.1ZM259.4,83.4c.1,0,.2,0,.3.1,0,0,0,0,0,0,0,0-.1-.2-.1-.3,0-.2.1-.3.3-.3s.3.1.3.3,0,.2-.1.3c0,0,0,0,0,0,0,0,.2-.1.3-.1.2,0,.3.1.3.3,0-.2.1-.3.3-.3s.2,0,.3.1c0,0,0,0,0,0,0,0-.1-.2-.1-.3,0-.2.1-.3.3-.3s.3.1.3.3,0,.2-.1.3c0,0,0,0,0,0,0,0,.2-.1.3-.1.2,0,.3.1.3.3s-.1.3-.3.3-.2,0-.3-.1c0,0,0,0,0,0,0,0,.1.2.1.3,0,.2-.1.3-.3.3s-.3-.2-.3-.3,0-.2.1-.3c0,0,0,0,0,0,0,0-.2.1-.3.1-.2,0-.3-.2-.3-.3,0,.2-.1.3-.3.3s-.2,0-.3-.1c0,0,0,0,0,0,0,0,.1.2.1.3,0,.2-.1.3-.3.3s-.3-.2-.3-.3,0-.2.1-.3c0,0,0,0,0,0,0,0-.2.1-.3.1-.2,0-.3-.2-.3-.3s.2-.3.3-.3ZM260.2,73.5c.4.1.4.7.4.7v1.8h-.8v-1.8s0-.6.4-.7ZM261,68.9l.3.8h-.6l.3-.8ZM261.1,83c0,.2-.1.3-.3.3s-.3-.1-.3-.3,0-.2.1-.3c0,0,0,0,0,0,0,0-.2.1-.3.1-.2,0-.3-.2-.3-.3s.1-.3.3-.3.2,0,.3.1c0,0,0,0,0,0,0,0-.1-.2-.1-.3,0-.2.1-.3.3-.3s.3.1.3.3,0,.2-.1.3c0,0,0,0,0,0,0,0,.2-.1.3-.1.2,0,.3.2.3.3s-.1.3-.3.3-.2,0-.3-.1c0,0,0,0,0,0,0,0,.1.2.1.3ZM261.7,74.2v1.8h-.8v-1.8s0-.6.4-.7c.4.1.4.7.4.7ZM262.9,65l.3.8h-.6l.3-.8ZM263.6,83.2c0-.2.1-.3.3-.3s.3.1.3.3,0,.2-.1.3c0,0,0,0,0,0,0,0,.2-.1.3-.1.2,0,.3.1.3.3,0-.2.1-.3.3-.3s.2,0,.3.1c0,0,0,0,0,0,0,0-.1-.2-.1-.3,0-.2.1-.3.3-.3s.3.1.3.3,0,.2-.1.3c0,0,0,0,0,0,0,0,.2-.1.3-.1.2,0,.3.1.3.3s-.1.3-.3.3-.2,0-.3-.1c0,0,0,0,0,0,0,0,.1.2.1.3,0,.2-.1.3-.3.3s-.3-.2-.3-.3,0-.2.1-.3c0,0,0,0,0,0,0,0-.2.1-.3.1-.2,0-.3-.2-.3-.3,0,.2-.1.3-.3.3s-.2,0-.3-.1c0,0,0,0,0,0,0,0,.1.2.1.3,0,.2-.1.3-.3.3s-.3-.2-.3-.3,0-.2.1-.3c0,0,0,0,0,0,0,0-.2.1-.3.1-.2,0-.3-.2-.3-.3s.1-.3.3-.3.2,0,.3.1c0,0,0,0,0,0,0,0-.1-.2-.1-.3ZM264.2,73.5c.4.1.4.7.4.7v1.8h-.8v-1.8s0-.6.4-.7ZM265,68.9l.3.8h-.6l.3-.8ZM265.1,83c0,.2-.1.3-.3.3s-.3-.1-.3-.3,0-.2.1-.3c0,0,0,0,0,0,0,0-.2.1-.3.1-.2,0-.3-.2-.3-.3s.1-.3.3-.3.2,0,.3.1c0,0,0,0,0,0,0,0-.1-.2-.1-.3,0-.2.1-.3.3-.3s.3.1.3.3,0,.2-.1.3c0,0,0,0,0,0,0,0,.2-.1.3-.1.2,0,.3.2.3.3s-.1.3-.3.3-.2,0-.3-.1c0,0,0,0,0,0,0,0,.1.2.1.3ZM265.8,74.2v1.8h-.8v-1.8s0-.6.4-.7c.4.1.4.7.4.7ZM266.8,65l.3.8h-.7l.3-.8ZM267.4,83.4c.1,0,.2,0,.3.1,0,0,0,0,0,0,0,0-.1-.2-.1-.3,0-.2.1-.3.3-.3s.3.1.3.3,0,.2-.1.3c0,0,0,0,0,0,0,0,.2-.1.3-.1.2,0,.3.1.3.3,0-.2.1-.3.3-.3s.2,0,.3.1c0,0,0,0,0,0,0,0-.1-.2-.1-.3,0-.2.1-.3.3-.3s.3.1.3.3,0,.2-.1.3c0,0,0,0,0,0,0,0,.2-.1.3-.1.2,0,.3.1.3.3s-.1.3-.3.3-.2,0-.3-.1c0,0,0,0,0,0,0,0,.1.2.1.3,0,.2-.1.3-.3.3s-.3-.2-.3-.3,0-.2.1-.3c0,0,0,0,0,0,0,0-.2.1-.3.1-.2,0-.3-.2-.3-.3,0,.2-.1.3-.3.3s-.2,0-.3-.1c0,0,0,0,0,0,0,0,.1.2.1.3,0,.2-.1.3-.3.3s-.3-.2-.3-.3,0-.2.1-.3c0,0,0,0,0,0,0,0-.2.1-.3.1-.2,0-.3-.2-.3-.3s.1-.3.3-.3ZM268.2,73.5c.4.1.4.7.4.7v1.8h-.8v-1.8s0-.6.4-.7ZM268.9,68.9l.3.8h-.7l.3-.8ZM269.1,83c0,.2-.1.3-.3.3s-.3-.1-.3-.3,0-.2.1-.3c0,0,0,0,0,0,0,0-.2.1-.3.1-.2,0-.3-.2-.3-.3s.1-.3.3-.3.2,0,.3.1c0,0,0,0,0,0,0,0-.1-.2-.1-.3,0-.2.1-.3.3-.3s.3.1.3.3,0,.2-.1.3c0,0,0,0,0,0,0,0,.2-.1.3-.1.2,0,.3.2.3.3s-.1.3-.3.3-.2,0-.3-.1c0,0,0,0,0,0,0,0,.1.2.1.3ZM269.8,74.2v1.8h-.8v-1.8s0-.6.4-.7c.4.1.4.7.4.7ZM268.6,95.6v1.6h-.8v-1.6h.8ZM267.8,95.3v-.9h.8v.9h-.8ZM268.6,86.8v4.6h-1.3v-4.6s0-.9.7-1c.6.1.7,1,.7,1ZM268.8,86.3c-.2-.7-.8-.8-.8-.8,0,0,.3-.3.8-.4.5,0,.8.4.8.4,0,0-.5.1-.8.8ZM268.9,91.4v-4.6s0-.9.7-1c.6.1.7,1,.7,1v4.6h-1.3ZM269.8,95.6v1.6h-.8v-1.6h.8ZM268.9,95.3v-.9h.8v.9h-.8ZM270.7,102.2v3.8c-1.2,0-2.3,0-3.5,0v-3.8s0-1.8,1.7-2.3c1.8.5,1.7,2.3,1.7,2.3ZM274.4,99.9c1.9.5,1.8,2.3,1.8,2.3v3.8c-1.2,0-2.4,0-3.6,0v-3.8s0-1.8,1.8-2.3ZM274.6,91.4v-4.6s0-.9.7-1c.6.1.7,1,.7,1v4.6h-1.4ZM274.6,95.3v-.9h.9v.9h-.9ZM274.6,95.6h.9v1.6h-.9v-1.6ZM273.6,85.5s.3-.3.8-.4c.5,0,.8.4.8.4,0,0-.6.1-.8.8-.2-.7-.8-.8-.8-.8ZM272.8,91.4v-4.6s0-.9.7-1c.6.1.7,1,.7,1v4.6h-1.4ZM274.2,95.6v1.6h-.9v-1.6h.9ZM273.4,95.3v-.9h.9v.9h-.9ZM273,83.4c.1,0,.2,0,.3.1,0,0,0,0,0,0,0,0-.1-.2-.1-.3,0-.2.1-.3.3-.3s.3.1.3.3,0,.2-.1.3c0,0,0,0,0,0,0,0,.2-.1.3-.1.2,0,.3.1.3.3,0-.2.1-.3.3-.3s.2,0,.3.1c0,0,0,0,0,0,0,0-.1-.2-.1-.3,0-.2.2-.3.3-.3s.3.1.3.3,0,.2-.1.3c0,0,0,0,0,0,0,0,.2-.1.3-.1.2,0,.3.1.3.3s-.1.3-.3.3-.2,0-.3-.1c0,0,0,0,0,0,0,0,.1.2.1.3,0,.2-.1.3-.3.3s-.3-.2-.3-.3,0-.2.1-.3c0,0,0,0,0,0,0,0-.2.1-.3.1-.2,0-.3-.2-.3-.3,0,.2-.1.3-.3.3s-.2,0-.3-.1c0,0,0,0,0,0,0,0,.1.2.1.3,0,.2-.2.3-.3.3s-.3-.2-.3-.3,0-.2.1-.3c0,0,0,0,0,0,0,0-.2.1-.3.1-.2,0-.3-.2-.3-.3s.1-.3.3-.3ZM273,61.6c.3,0,.2.4.2.4v4h-.4v-4s0-.4.2-.4ZM273.1,54.1h.3v2.6h-.3v-2.6ZM273.5,50.5h.3v2h-.3v-2ZM274.7,83c0,.2-.1.3-.3.3s-.3-.1-.3-.3,0-.2.1-.3c0,0,0,0,0,0,0,0-.2.1-.3.1-.2,0-.3-.2-.3-.3s.2-.3.3-.3.2,0,.3.1c0,0,0,0,0,0,0,0-.1-.2-.1-.3,0-.2.1-.3.3-.3s.3.1.3.3,0,.2-.1.3c0,0,0,0,0,0,0,0,.2-.1.3-.1.2,0,.3.2.3.3s-.1.3-.3.3-.2,0-.3-.1c0,0,0,0,0,0,0,0,.1.2.1.3ZM274.4,71.6c1.1.2,1,1.3,1,1.3v3.6h-2v-3.6s0-1.1,1-1.3ZM274.6,67.6v.6h-.5v-.6s0,0,0-.1c0,0,0,0,0,0,0,0,0,0,0,0s0,0,0,0c0,0,.1,0,.2,0,0,0,0,0,0,0,0,0,0,.2,0,.2ZM274.2,61.4s0,0,.1,0c0,0,0,0,0,0s0,0,0,0c0,0,0,0,.1,0,.1.1,0,.3,0,.3v4h-.5v-4s0-.2,0-.3ZM274.2,57.6s0-.2.2-.2.2.2.2.2v.5h-.4v-.5ZM274.2,53.9h.4v2.6h-.4v-2.6ZM274.2,50.5h.4v2h-.4v-2ZM275,50.5h.3v2h-.3v-2ZM275.7,54.1v2.6h-.3v-2.6h.3ZM275.8,61.6c.3,0,.2.4.2.4v4h-.4v-4s0-.4.2-.4ZM278.2,83.4c.1,0,.2,0,.3.1,0,0,0,0,0,0,0,0-.1-.2-.1-.3,0-.2.1-.3.3-.3s.3.1.3.3,0,.2-.1.3c0,0,0,0,0,0,0,0,.2-.1.3-.1.2,0,.3.1.3.3,0-.2.1-.3.3-.3s.2,0,.3.1c0,0,0,0,0,0,0,0-.1-.2-.1-.3,0-.2.1-.3.3-.3s.3.1.3.3,0,.2-.1.3c0,0,0,0,0,0,0,0,.2-.1.3-.1.2,0,.3.1.3.3s-.1.3-.3.3-.2,0-.3-.1c0,0,0,0,0,0,0,0,.1.2.1.3,0,.2-.1.3-.3.3s-.3-.2-.3-.3,0-.2.1-.3c0,0,0,0,0,0,0,0-.2.1-.3.1-.2,0-.3-.2-.3-.3,0,.2-.1.3-.3.3s-.2,0-.3-.1c0,0,0,0,0,0,0,0,.1.2.1.3,0,.2-.1.3-.3.3s-.3-.2-.3-.3,0-.2.1-.3c0,0,0,0,0,0,0,0-.2.1-.3.1-.2,0-.3-.2-.3-.3s.1-.3.3-.3ZM279,73.5c.4.1.4.7.4.7v1.8h-.8v-1.8s0-.6.4-.7ZM279.8,68.9l.3.8h-.6l.3-.8ZM279.9,83c0,.2-.1.3-.3.3s-.3-.1-.3-.3,0-.2.1-.3c0,0,0,0,0,0,0,0-.2.1-.3.1-.2,0-.3-.2-.3-.3s.1-.3.3-.3.2,0,.3.1c0,0,0,0,0,0,0,0-.1-.2-.1-.3,0-.2.1-.3.3-.3s.3.1.3.3,0,.2-.1.3c0,0,0,0,0,0,0,0,.2-.1.3-.1.2,0,.3.2.3.3s-.1.3-.3.3-.2,0-.3-.1c0,0,0,0,0,0,0,0,.1.2.1.3ZM280.6,74.2v1.8h-.8v-1.8s0-.6.4-.7c.4.1.4.7.4.7ZM281.6,65l.3.8h-.6l.3-.8ZM282.2,83.4c.1,0,.2,0,.3.1,0,0,0,0,0,0,0,0-.1-.2-.1-.3,0-.2.1-.3.3-.3s.3.1.3.3,0,.2-.1.3c0,0,0,0,0,0,0,0,.2-.1.3-.1.2,0,.3.1.3.3,0-.2.1-.3.3-.3s.2,0,.3.1c0,0,0,0,0,0,0,0-.1-.2-.1-.3,0-.2.1-.3.3-.3s.3.1.3.3,0,.2-.1.3c0,0,0,0,0,0,0,0,.2-.1.3-.1.2,0,.3.1.3.3s-.1.3-.3.3-.2,0-.3-.1c0,0,0,0,0,0,0,0,.1.2.1.3,0,.2-.1.3-.3.3s-.3-.2-.3-.3,0-.2.1-.3c0,0,0,0,0,0,0,0-.2.1-.3.1-.2,0-.3-.2-.3-.3,0,.2-.1.3-.3.3s-.2,0-.3-.1c0,0,0,0,0,0,0,0,.1.2.1.3,0,.2-.1.3-.3.3s-.3-.2-.3-.3,0-.2.1-.3c0,0,0,0,0,0,0,0-.2.1-.3.1-.2,0-.3-.2-.3-.3s.1-.3.3-.3ZM283,73.5c.4.1.4.7.4.7v1.8h-.8v-1.8s0-.6.4-.7ZM283.7,68.9l.3.8h-.6l.3-.8ZM283.9,83c0,.2-.1.3-.3.3s-.3-.1-.3-.3,0-.2.1-.3c0,0,0,0,0,0,0,0-.2.1-.3.1-.2,0-.3-.2-.3-.3s.1-.3.3-.3.2,0,.3.1c0,0,0,0,0,0,0,0-.1-.2-.1-.3,0-.2.1-.3.3-.3s.3.1.3.3,0,.2-.1.3c0,0,0,0,0,0,0,0,.2-.1.3-.1.2,0,.3.2.3.3s-.1.3-.3.3-.2,0-.3-.1c0,0,0,0,0,0,0,0,.1.2.1.3ZM284.6,74.2v1.8h-.8v-1.8s0-.6.4-.7c.4.1.4.7.4.7ZM283.4,95.6v1.6h-.8v-1.6h.8ZM282.6,95.3v-.9h.8v.9h-.8ZM283.4,86.8v4.6h-1.3v-4.6s0-.9.7-1c.6.1.7,1,.7,1ZM283.6,86.3c-.2-.7-.8-.8-.8-.8,0,0,.3-.3.8-.4.5,0,.8.4.8.4,0,0-.5.1-.8.8ZM283.7,91.4v-4.6s0-.9.7-1c.6.1.7,1,.7,1v4.6h-1.3ZM284.6,95.6v1.6h-.8v-1.6h.8ZM283.7,95.3v-.9h.8v.9h-.8ZM285.5,102.2v3.8c-1.2,0-2.3,0-3.5,0v-3.8s0-1.8,1.7-2.3c1.8.5,1.7,2.3,1.7,2.3ZM286.2,83.4c.1,0,.2,0,.3.1,0,0,0,0,0,0,0,0-.1-.2-.1-.3,0-.2.1-.3.3-.3s.3.1.3.3,0,.2-.1.3c0,0,0,0,0,0,0,0,.2-.1.3-.1.2,0,.3.1.3.3,0-.2.1-.3.3-.3s.2,0,.3.1c0,0,0,0,0,0,0,0-.1-.2-.1-.3,0-.2.1-.3.3-.3s.3.1.3.3,0,.2-.1.3c0,0,0,0,0,0,0,0,.2-.1.3-.1.2,0,.3.1.3.3s-.1.3-.3.3-.2,0-.3-.1c0,0,0,0,0,0,0,0,.1.2.1.3,0,.2-.1.3-.3.3s-.3-.2-.3-.3,0-.2.1-.3c0,0,0,0,0,0,0,0-.2.1-.3.1-.2,0-.3-.2-.3-.3,0,.2-.1.3-.3.3s-.2,0-.3-.1c0,0,0,0,0,0,0,0,.1.2.1.3,0,.2-.1.3-.3.3s-.3-.2-.3-.3,0-.2.1-.3c0,0,0,0,0,0,0,0-.2.1-.3.1-.2,0-.3-.2-.3-.3s.1-.3.3-.3ZM287,73.5c.4.1.4.7.4.7v1.8h-.8v-1.8s0-.6.4-.7ZM287.9,81.9c0,.1,0,.2-.1.3,0,0,0,0,0,0,0,0,.2-.1.3-.1.2,0,.3.2.3.3s-.1.3-.3.3-.2,0-.3-.1c0,0,0,0,0,0,0,0,.1.2.1.3,0,.2-.1.3-.3.3s-.3-.1-.3-.3,0-.2.1-.3c0,0,0,0,0,0,0,0-.2.1-.3.1-.2,0-.3-.2-.3-.3s.1-.3.3-.3.2,0,.3.1c0,0,0,0,0,0,0,0-.1-.2-.1-.3,0-.2.1-.3.3-.3s.3.1.3.3ZM287.8,74.2s0-.6.4-.7c.4.1.4.7.4.7v1.8h-.8v-1.8ZM287.4,95.6v1.6h-.8v-1.6h.8ZM286.6,95.3v-.9h.8v.9h-.8ZM287.4,86.8v4.6h-1.3v-4.6s0-.9.7-1c.6.1.7,1,.7,1ZM287.6,86.3c-.2-.7-.8-.8-.8-.8,0,0,.3-.3.8-.4.5,0,.8.4.8.4,0,0-.5.1-.8.8ZM287.8,91.4v-4.6s0-.9.7-1c.6.1.7,1,.7,1v4.6h-1.3ZM288.6,95.6v1.6h-.8v-1.6h.8ZM287.8,95.3v-.9h.8v.9h-.8ZM289.5,102.2v3.8c-1.2,0-2.3,0-3.5,0v-3.8s0-1.8,1.7-2.3c1.8.5,1.7,2.3,1.7,2.3ZM291.7,83.4c.1,0,.2,0,.3.1,0,0,0,0,0,0,0,0-.1-.2-.1-.3,0-.2.1-.3.3-.3s.3.1.3.3,0,.2-.1.3c0,0,0,0,0,0,0,0,.2-.1.3-.1.2,0,.3.1.3.3,0-.2.2-.3.3-.3s.2,0,.3.1c0,0,0,0,0,0,0,0-.1-.2-.1-.3,0-.2.2-.3.3-.3s.3.1.3.3,0,.2-.1.3c0,0,0,0,0,0,0,0,.2-.1.3-.1.2,0,.3.1.3.3s-.1.3-.3.3-.2,0-.3-.1c0,0,0,0,0,0,0,0,.1.2.1.3,0,.2-.2.3-.3.3s-.3-.2-.3-.3,0-.2.1-.3c0,0,0,0,0,0,0,0-.2.1-.3.1-.2,0-.3-.2-.3-.3,0,.2-.1.3-.3.3s-.2,0-.3-.1c0,0,0,0,0,0,0,0,.1.2.1.3,0,.2-.1.3-.3.3s-.3-.2-.3-.3,0-.2.1-.3c0,0,0,0,0,0,0,0-.2.1-.3.1-.2,0-.3-.2-.3-.3s.1-.3.3-.3ZM291.7,61.6c.3,0,.2.4.2.4v4h-.4v-4s0-.4.2-.4ZM291.9,54.1h.4v2.6h-.4v-2.6ZM292.2,50.5h.3v2h-.3v-2ZM293.5,83c0,.2-.1.3-.3.3s-.3-.1-.3-.3,0-.2.1-.3c0,0,0,0,0,0,0,0-.2.1-.3.1-.2,0-.3-.2-.3-.3s.1-.3.3-.3.2,0,.3.1c0,0,0,0,0,0,0,0-.1-.2-.1-.3,0-.2.2-.3.3-.3s.3.1.3.3,0,.2-.1.3c0,0,0,0,0,0,0,0,.2-.1.3-.1.2,0,.3.2.3.3s-.1.3-.3.3-.2,0-.3-.1c0,0,0,0,0,0,0,0,.1.2.1.3ZM293.1,71.6c1.1.2,1,1.3,1,1.3v3.6h-2v-3.6s0-1.1,1-1.3ZM293.4,67.6v.6h-.5v-.6s0-.3.2-.3,0,0,.1,0c0,0,0,0,0,0,0,0,0,.2,0,.2ZM292.9,61.5s0,0,0,0c0,0,0,0,0,0,0,0,0,0,0,0,0,0,0,0,0,0,.3,0,.3.4.3.4v4h-.5v-4s0-.1,0-.2ZM293,57.6s0,0,0,0h0s0,0,0,0c0,0,0,0,0,0,0,0,0,0,.1,0s.1,0,.1,0c0,0,0,0,0,0,0,0,0,0,0,0,0,0,0,0,0,0,0,0,0,0,0,0v.5h-.4v-.5ZM293,53.9h.3v2.6h-.3v-2.6ZM293,50.5h.3v2h-.3v-2ZM293.8,50.5h.3v2h-.3v-2ZM294.4,54.1v2.6h-.3v-2.6h.3ZM294.6,61.6c.3,0,.2.4.2.4v4h-.4v-4s0-.4.2-.4ZM293,95.6v1.6h-.9v-1.6h.9ZM292.1,95.3v-.9h.9v.9h-.9ZM293,86.8v4.6h-1.4v-4.6s0-.9.7-1c.6.1.7,1,.7,1ZM293.1,86.3s-.2-.7-.9-.8c0,0,.4-.4.9-.4.5,0,.9.4.9.4-.7.1-.9.8-.9.8ZM293.3,91.4v-4.6s0-.9.7-1c.6.1.7,1,.7,1v4.6h-1.4ZM294.2,95.6v1.6h-.9v-1.6h.9ZM293.3,95.3v-.9h.9v.9h-.9ZM295,102.2v3.9c-1.2,0-2.4,0-3.6,0v-3.8s0-1.8,1.8-2.3c1.9.5,1.8,2.3,1.8,2.3ZM298.7,99.8c1.5.5,1.5,2,1.5,2v4.3c-1,0-1.9,0-2.9,0v-4.3s0-1.5,1.5-2ZM297.6,90.8h.8v1.7h-.8v-1.7ZM297.6,89.9s0-.7.4-.8c.4.1.4.8.4.8v.7h-.8v-.7ZM297.6,83.2s0-.6.3-.8c.3.2.3.8.3.8v1.9h-.5v-1.9ZM298.2,76.2l.4-1,.4,1v.8h-.8v-.8ZM298.8,92.6v-1.7h.8v1.7h-.8ZM298.7,96v-.8h.7v.8h-.7ZM298.3,85.1v-1.9s0-.6.3-.8c.3.2.3.8.3.8v1.9h-.5ZM298.7,96.2h.7v1.3h-.7v-1.3ZM298.4,96.2v1.3h-.7v-1.3h.7ZM297.7,96v-.8h.7v.8h-.7ZM299.2,89.1c.4.1.4.8.4.8v.7h-.8v-.7s0-.7.4-.8ZM299.1,83.2s0-.6.3-.8c.3.2.3.8.3.8v1.9h-.5v-1.9ZM302.3,99.8c1.5.5,1.5,2,1.5,2v4.3h-.6c-.8,0-1.5,0-2.3,0v-4.3s0-1.5,1.4-2ZM301.2,90.8h.8v1.7h-.8v-1.7ZM301.2,89.9s0-.7.4-.8c.4.1.4.8.4.8v.7h-.8v-.7ZM301.5,82.4c.3.2.3.8.3.8v1.9h-.5v-1.9s0-.6.3-.8ZM301.8,76.2l.4-1,.4,1v.8h-.8v-.8ZM302.4,92.6v-1.7h.8v1.7h-.8ZM302.3,96v-.8h.7v.8h-.7ZM302.3,96.2h.7v1.3h-.7v-1.3ZM302.2,82.4c.3.2.3.8.3.8v1.9h-.5v-1.9s0-.6.3-.8ZM302,96.2v1.3h-.7v-1.3h.7ZM301.3,96v-.8h.7v.8h-.7ZM302.8,89.1c.4.1.4.8.4.8v.7h-.8v-.7s0-.7.4-.8ZM302.7,83.2s0-.6.3-.8c.3.2.2.8.2.8v1.9h-.5v-1.9ZM305.9,99.8c1.5.5,1.5,2,1.5,2v4.3c-1,0-1.9,0-2.9,0v-4.3s0-1.5,1.4-2ZM304.8,90.8h.8v1.7h-.8v-1.7ZM304.8,89.9s0-.7.4-.8c.4.1.4.8.4.8v.7h-.8v-.7ZM305.1,82.4c.3.2.3.8.3.8v1.9h-.5v-1.9s0-.6.3-.8ZM305.4,76.2l.4-1,.4,1v.8h-.8v-.8ZM306,92.6v-1.7h.8v1.7h-.8ZM305.9,96v-.8h.7v.8h-.7ZM305.9,96.2h.7v1.3h-.7v-1.3ZM305.8,82.4c.3.2.3.8.3.8v1.9h-.5v-1.9s0-.6.3-.8ZM305.7,96.2v1.3h-.7v-1.3h.7ZM305,96v-.8h.7v.8h-.7ZM306.4,89.1c.4.1.4.8.4.8v.7h-.8v-.7s0-.7.4-.8ZM306.3,83.2s0-.6.3-.8c.3.2.3.8.3.8v1.9h-.5v-1.9ZM309.5,99.8c1.5.5,1.4,2,1.4,2v4.4c-1,0-1.9,0-2.9,0v-4.4s0-1.5,1.5-2ZM308.4,90.8h.8v1.7h-.8v-1.7ZM308.4,89.9s0-.7.4-.8c.4.1.4.8.4.8v.7h-.8v-.7ZM308.7,82.4c.3.2.3.8.3.8v1.9h-.5v-1.9s0-.6.3-.8ZM309,76.2l.4-1,.4,1v.8h-.8v-.8ZM309.6,92.6v-1.7h.8v1.7h-.8ZM309.5,96v-.8h.7v.8h-.7ZM309.5,96.2h.7v1.3h-.7v-1.3ZM309.4,82.4c.3.2.3.8.3.8v1.9h-.5v-1.9s0-.6.3-.8ZM309.3,96.2v1.3h-.7v-1.3h.7ZM308.6,96v-.8h.7v.8h-.7ZM310,89.1c.4.1.4.8.4.8v.7h-.8v-.7s0-.7.4-.8ZM309.9,83.2s0-.6.3-.8c.3.2.3.8.3.8v1.9h-.5v-1.9ZM313.2,99.8c1.5.5,1.5,2,1.5,2v4.4c-1,0-1.9,0-2.9,0v-4.4s0-1.5,1.5-2ZM312,90.8h.8v1.7h-.8v-1.7ZM312,89.9s0-.7.4-.8c.4.1.4.8.4.8v.7h-.8v-.7ZM312.3,82.4c.3.2.3.8.3.8v1.9h-.5v-1.9s0-.6.3-.8ZM312.6,76.2l.4-1,.4,1v.8h-.8v-.8ZM313.2,92.6v-1.7h.8v1.7h-.8ZM313.2,96v-.8h.7v.8h-.7ZM312.8,85.1v-1.9s0-.6.3-.8c.3.2.2.8.2.8v1.9h-.5ZM313.2,96.2h.7v1.3h-.7v-1.3ZM312.9,96.2v1.3h-.7v-1.3h.7ZM312.2,96v-.8h.7v.8h-.7ZM313.6,89.1c.4.1.4.8.4.8v.7h-.8v-.7s0-.7.4-.8ZM313.8,82.4c.3.2.3.8.3.8v1.9h-.5v-1.9s0-.6.3-.8ZM279.4,95.6v1.6h-.8v-1.6h.8ZM278.6,95.3v-.9h.8v.9h-.8ZM279.4,86.8v4.6h-1.3v-4.6s0-.9.7-1c.6.1.7,1,.7,1ZM279.6,86.3c-.2-.7-.8-.8-.8-.8,0,0,.3-.3.8-.4.5,0,.7.4.7.4,0,0-.5.1-.7.8ZM279.7,91.4v-4.6s0-.9.7-1c.6.1.7,1,.7,1v4.6h-1.3ZM280.6,95.6v1.6h-.8v-1.6h.8ZM279.7,95.3v-.9h.8v.9h-.8ZM279.7,99.9c1.8.5,1.7,2.3,1.7,2.3v3.8c-1.2,0-2.3,0-3.5,0v-3.8s0-1.8,1.7-2.3ZM252.6,99.9c1.9.5,1.8,2.3,1.8,2.3v3.8c-1.2,0-2.4,0-3.6,0v-3.8s0-1.8,1.8-2.3ZM250.6,29.2v4l-.6.2v-4.2h.6ZM255.2,29.2v4.2l-.6-.2v-4h.6ZM252.8,84.8s0-1.1.8-1.2c.7.2.8,1.2.8,1.2v5.4h-1.7v-5.4ZM252.4,84.8v5.4h-1.7v-5.4s.1-1.1.8-1.2c.7.2.8,1.2.8,1.2ZM251.7,83.2s.3-.3.9-.5c.6.1.9.5.9.5,0,0-.6.2-.9,1-.3-.8-.9-1-.9-1ZM264.6,95.6v1.6h-.8v-1.6h.8ZM263.8,95.3v-.9h.8v.9h-.8ZM264.6,86.8v4.6h-1.3v-4.6s0-.9.7-1c.6.1.7,1,.7,1ZM264.8,86.3c-.2-.7-.8-.8-.8-.8,0,0,.3-.3.8-.4.5,0,.8.4.8.4,0,0-.5.1-.8.8ZM264.9,91.4v-4.6s0-.9.7-1c.6.1.7,1,.7,1v4.6h-1.3ZM265.8,95.6v1.6h-.8v-1.6h.8ZM264.9,95.3v-.9h.8v.9h-.8ZM264.9,99.9c1.8.5,1.7,2.3,1.7,2.3v3.8c-1.2,0-2.3,0-3.5,0v-3.8s0-1.8,1.7-2.3ZM260.6,95.6v1.6h-.8v-1.6h.8ZM259.8,95.3v-.9h.8v.9h-.8ZM260.6,86.8v4.6h-1.3v-4.6s0-.9.7-1c.6.1.7,1,.7,1ZM260.8,86.3c-.2-.7-.8-.8-.8-.8,0,0,.3-.3.8-.4.5,0,.8.4.8.4,0,0-.5.1-.8.8ZM260.9,91.4v-4.6s0-.9.7-1c.6.1.7,1,.7,1v4.6h-1.3ZM261.7,95.6v1.6h-.8v-1.6h.8ZM260.9,95.3v-.9h.8v.9h-.8ZM260.9,99.9c1.8.5,1.7,2.3,1.7,2.3v3.8h-3.5v-3.8s0-1.8,1.7-2.3ZM255.2,26.7v2.3h-.6v-2.3h0c0-.1.6-.1.6-.1h0c0,.1,0,.1,0,.1ZM250.9,80.8c.1,0,.3,0,.3.2,0,0,0,0,0,0,0,0-.2-.2-.2-.3,0-.2.2-.4.4-.4s.4.2.4.4,0,.3-.2.3c0,0,0,0,.1,0,0,0,.2-.2.3-.2.2,0,.4.2.4.4,0-.2.2-.4.4-.4s.2,0,.3.2c0,0,0,0,0,0,0,0-.2-.2-.2-.3,0-.2.2-.4.4-.4s.4.2.4.4,0,.3-.2.3c0,0,0,0,.1,0,0,0,.2-.2.3-.2.2,0,.4.2.4.4s-.2.4-.4.4-.2,0-.3-.2c0,0,0,0-.1,0,.1,0,.2.2.2.3,0,.2-.2.4-.4.4s-.4-.2-.4-.4,0-.3.2-.3c0,0,0,0,0,0,0,.1-.2.2-.3.2-.2,0-.4-.2-.4-.4,0,.2-.2.4-.4.4s-.3,0-.3-.2c0,0,0,0-.1,0,.1,0,.2.2.2.3,0,.2-.2.4-.4.4s-.4-.2-.4-.4,0-.3.2-.3c0,0,0,0,0,0,0,.1-.2.2-.3.2-.2,0-.4-.2-.4-.4s.2-.4.4-.4ZM252.3,51.7h0c0,0-1.2,0-1.2,0h0c0,0,0,0,0,0,0,0,0-1.1.7-1.4.8.3.7,1.4.7,1.4ZM252.6,50.6s-.3-1-.8-1.2c0,0,.2-.3.8-.4.6.2.8.4.8.4-.4.2-.8,1.2-.8,1.2ZM254.2,51.7h0c0,0-1.2,0-1.2,0h0c0,0,0,0,0,0,0,0,0-1.1.7-1.4.8.3.7,1.4.7,1.4h0ZM252.9,62.4v-10.2h0c0,0,1.2,0,1.2,0h0c0,0,0,0,0,0v10.2h-1.4ZM252.3,52.2v10.2h-1.4v-10.2h0c0,0,1.2,0,1.2,0h0c0,0,0,0,0,0ZM253,80.3c0,.2-.2.4-.4.4s-.4-.2-.4-.4,0-.3.2-.3c0,0,0,0-.1,0,0,0-.2.2-.3.2-.2,0-.4-.2-.4-.4s.2-.4.4-.4.2,0,.3.2c0,0,0,0,.1,0-.1,0-.2-.2-.2-.3,0-.2.2-.4.4-.4s.4.2.4.4,0,.3-.2.3c0,0,0,0,0,0,0,0,.2-.2.3-.2.2,0,.4.2.4.4s-.2.4-.4.4-.3,0-.3-.2c0,0,0,0,0,0,0,0,.2.2.2.3ZM250.6,26.7v2.3h-.6v-2.3h0c0-.1.6-.1.6-.1h0c0,.1,0,.1,0,.1ZM244.3,95.6v1.6h-.8v-1.6h.8ZM243.4,95.3v-.9h.8v.9h-.8ZM244.3,86.8v4.6h-1.3v-4.6s0-.9.7-1c.6.1.7,1,.7,1ZM244.4,86.3c-.2-.7-.7-.8-.7-.8,0,0,.3-.3.7-.4.5,0,.8.4.8.4,0,0-.5.1-.8.8ZM244.6,91.4v-4.6s0-.9.7-1c.6.1.7,1,.7,1v4.6h-1.3ZM245.4,95.6v1.6h-.8v-1.6h.8ZM244.6,95.3v-.9h.8v.9h-.8ZM244.3,99.9c1.8.5,1.7,2.3,1.7,2.3v3.8c-1.2,0-2.3,0-3.5,0v-3.8s0-1.8,1.7-2.3ZM240.2,86.8v4.6h-1.3v-4.6s0-.9.7-1c.6.1.7,1,.7,1ZM240.2,95.6v1.6h-.8v-1.6h.8ZM239.4,95.3v-.9h.8v.9h-.8ZM240.4,86.3c-.2-.7-.8-.8-.8-.8,0,0,.3-.3.8-.4.5,0,.8.4.8.4,0,0-.5.1-.8.8ZM240.6,91.4v-4.6s0-.9.7-1c.6.1.7,1,.7,1v4.6h-1.3ZM241.4,95.6v1.6h-.8v-1.6h.8ZM240.6,95.3v-.9h.8v.9h-.8ZM240.2,99.9c1.8.5,1.7,2.3,1.7,2.3v3.8c-1.2,0-2.3,0-3.5,0v-3.8s0-1.8,1.7-2.3ZM225.5,95.6v1.6h-.8v-1.6h.8ZM224.6,95.3v-.9h.8v.9h-.8ZM225.5,86.8v4.6h-1.3v-4.6s0-.9.7-1c.6.1.7,1,.7,1ZM225.6,86.3c-.2-.7-.8-.8-.8-.8,0,0,.3-.3.8-.4.5,0,.8.4.8.4,0,0-.5.1-.8.8ZM225.8,91.4v-4.6s0-.9.7-1c.6.1.7,1,.7,1v4.6h-1.3ZM226.6,95.6v1.6h-.8v-1.6h.8ZM225.8,95.3v-.9h.8v.9h-.8ZM225.5,99.9c1.8.5,1.7,2.3,1.7,2.3v3.9c-1.2,0-2.3,0-3.5,0v-3.9s0-1.8,1.7-2.3ZM316.8,99.8c1.5.5,1.5,2,1.5,2v4.4c-1,0-1.9,0-2.9,0v-4.4s0-1.5,1.4-2ZM315.7,90.8h.8v1.7h-.8v-1.7ZM315.7,89.9s0-.7.4-.8c.4.1.4.8.4.8v.7h-.8v-.7ZM315.9,82.4c.3.2.2.8.2.8v1.9h-.5v-1.9s0-.6.3-.8ZM316.2,76.2l.4-1,.4,1v.8h-.8v-.8ZM316.8,92.6v-1.7h.8v1.7h-.8ZM316.8,96v-.8h.7v.8h-.7ZM316.4,85.1v-1.9s0-.6.3-.8c.3.2.3.8.3.8v1.9h-.5ZM316.8,96.2h.7v1.3h-.7v-1.3ZM316.5,96.2v1.3h-.7v-1.3h.7ZM315.8,96v-.8h.7v.8h-.7ZM317.2,89.1c.4.1.4.8.4.8v.7h-.8v-.7s0-.7.4-.8ZM317.1,83.2s0-.6.3-.8c.3.2.3.8.3.8v1.9h-.5v-1.9ZM321.4,90.5h.9v1.9h-.9v-1.9ZM321.4,89.5s0-.8.4-.9c.4.1.4.9.4.9v.7h-.9v-.7ZM321.7,81.9c.3.2.3.8.3.8v2.1h-.5v-2.1s0-.7.3-.8ZM322.5,81.9c.3.2.3.8.3.8v2.1h-.5v-2.1s0-.7.3-.8ZM323.1,88.7c.4.1.4.9.4.9v.7h-.9v-.7s0-.8.4-.9ZM323,82.7s0-.7.3-.8c.3.2.3.8.3.8v2.1h-.5v-2.1ZM323.4,100.6v1.4h-.8v-1.4h.8ZM323.4,99.6v.8h-.8v-.8h.8ZM323.4,96.2v1.4h-.8v-1.4h.8ZM322.7,92.4v-1.9h.9v1.9h-.9ZM323.4,95.1v.8h-.8v-.8h.8ZM322.4,100.6v1.4h-.8v-1.4h.8ZM322.4,99.6v.8h-.8v-.8h.8ZM321.6,96v-.8h.8v.8h-.8ZM322.4,96.2v1.4h-.8v-1.4h.8ZM324.8,104.5c1.5,0,1.5,1.3,1.5,1.3v.5c-1,0-2,0-3,0v-.5s0-1.3,1.5-1.3ZM323.7,75.8h.9v1.9h-.9v-1.9ZM323.7,74.8s0-.8.4-.9c.4.1.4.9.4.9v.7h-.9v-.7ZM325,75.8h.9v1.9h-.9v-1.9ZM325,74.8s0-.8.4-.9c.4.1.4.9.4.9v.7h-.9v-.7ZM326.2,81.9c.3.2.3.8.3.8v2.1h-.5v-2.1s0-.7.3-.8ZM326.5,68.3h0v1.5h0v-1.5ZM326.1,100.6h.4v1.4h-.4v-1.4ZM326.6,90.5v1.9h-.6v-1.9h.6ZM326.6,90.3h-.6v-.7s0-.8.4-.9c0,0,.1,0,.2.1v1.5ZM326.1,96v-.8h.4v.8h-.4ZM326.1,97.6v-1.4h.4v1.4h-.4ZM326.6,100.4h-.4v-.8h.4v.8ZM358.5,101.6v5.2h0c0-.8-.1-1.6-.2-2.4,0-.9.2-1.9.2-2.8ZM404.3,95.5h2.2v2h-2.2v-2ZM404.6,89.9v-.7s.3,0,.3-.2.1-.2.5-.2.5,0,.5.2.3.2.3.2v.7s0,.6.3.6c0,0-.4,0-.4.3v.3h-1.3v-.3c0-.2-.4-.3-.4-.3.3,0,.3-.6.3-.6ZM412.5,74.7s0-.4.5-.4.5.4.5.4v1.6h-1v-1.6ZM417.1,102.5s.4,0,.4-.4,0-.5.4-.5.4.2.4.5.4.4.4.4v2.4h-1.4v-2.4ZM417.7,95.6h1.3v1.8h-1.3v-1.8ZM420.7,88.8s.3-.2.3.2v2.9l-.6.3v-2.7s0-.4.3-.7ZM420.6,83.6c0-.6.2-1,.3-1,.2,0,.2.5.2,1,0,.6-.2,1-.3,1-.2,0-.2-.5-.2-1ZM421.7,95.7h-.6v-1.1h.6v1.1ZM423.9,94.6h.6v1.1h-.6v-1.1ZM425.8,74.4s0-.2.2-.2.2.2.2.2v1.7h-.4c0,0,0-1.7,0-1.7ZM427,80.7c.5,0,.9.5.9,1.2s-.4,1.2-.9,1.2-.9-.5-.9-1.2.4-1.2.9-1.2ZM426.7,74.1h0s0,0,0,0c0,0,0,0,0,0,0,0,0,0,0,0s0,0,0,0c0,0,.1,0,.2,0s.2,0,.2,0c0,0,0,0,0,0s0,0,0,0c0,0,0,0,0,0h0s0,0,0,0h0v1.9h-.6v-1.9ZM427.9,74.4s0-.2.2-.2.2.2.2.2v1.8h-.4v-1.8ZM429.6,94.6h.6v1.1h-.6v-1.1ZM434.1,79v-2s0,0,0,0h1.1c0,.9-.1,1.8-.1,2.6s0,1.7.1,2.5h-1.3s0,0-.1,0c0,0-.2-1.5-1.4-3h1.8ZM436.3,87.2l-.5.2s0,0,0,0l-.8.3v-1.1s.1,0,.1-.2l-.2-.3s0-.2,0-.3c0-.1,0-.1,0-.2s0-.2,0-.2.1-.1.1-.2-.2-.1-.2-.4,0-.3-.2-.4c-.1,0-.1-.2,0-.2,0,0,0-.2-.1-.2s-.2,0-.2.2c0,.1,0,.1,0,.2s-.2.1-.2,0v-.8c0,0,0-.5,0-.5,0,0,0-.2,0-.4h1.3c.2,1.6.5,3.2,1,4.8ZM437.9,79.7c0,.7,0,1.4.1,2.1l-2.4.3c0-.8-.1-1.5-.1-2.3h2.4ZM435.6,77l2.4.3c0,.7,0,1.4-.1,2.1h-2.4c0-.8,0-1.5.1-2.3ZM436,74.4l2.4.5c0,.3-.1.7-.2,1,0,0,0,0,0,.1,0,.3,0,.6-.1.9l-2.4-.3c0-.8.2-1.5.4-2.3ZM436.6,71.9l2.3.8c-.2.6-.4,1.3-.5,2l-2.4-.5c.2-.8.4-1.5.6-2.2ZM437.6,69.4l2.2,1c-.3.6-.5,1.3-.7,1.9l-2.3-.8c.2-.7.5-1.5.8-2.2ZM438,68.4h.2v-.4c.2-.3.3-.6.5-1l2.1,1.2c-.3.6-.7,1.2-.9,1.8l-2.2-1c.1-.2.2-.5.3-.7ZM438.2,66.7h.2c0,.3-.2.4-.2.6v-.6ZM440.2,64.8l2,1.4c-.4.6-.8,1.1-1.1,1.7l-2.1-1.2c.4-.7.8-1.3,1.3-1.9ZM441.8,62.8l1.8,1.6c-.5.5-.9,1-1.3,1.6l-2-1.4c.5-.6.9-1.2,1.5-1.8ZM443.7,60.9l1.6,1.8c-.5.5-1,.9-1.5,1.5l-1.8-1.6c.5-.6,1.1-1.1,1.6-1.6ZM445.1,59.6h.5v-.4s0,0,0,0l1.4,2c-.6.4-1.1.8-1.6,1.3l-1.6-1.8c.4-.4.8-.7,1.2-1ZM447.9,57.8l1.2,2.1c-.6.3-1.2.7-1.7,1.1l-1.4-2c.6-.4,1.3-.9,1.9-1.3ZM450.3,56.5l1,2.2c-.6.3-1.2.6-1.8.9l-1.2-2.1c.7-.4,1.4-.7,2.1-1ZM452.7,55.6l.8,2.3c-.7.2-1.3.5-1.9.7l-1-2.2c.7-.3,1.4-.6,2.2-.8ZM453.6,55.3h1.7l.4,2c-.7.1-1.3.3-2,.5l-.8-2.3c.2,0,.4-.1.6-.2ZM455.9,55.3v-.5c.7-.1,1.3-.2,2-.3l.3,2.4c-.7,0-1.4.2-2,.3l-.4-1.9h.2ZM460.5,54.3v2.4c-.7,0-1.4,0-2.1.1l-.3-2.4c.8,0,1.5-.1,2.3-.1ZM460.6,87.7h-.7l.5-4.9h.2v4.9h0ZM460.5,88h0s0,0,0,0h0ZM460.5,88.6h0s0,0,0,0h0ZM460.5,88.9h-.1c0,.1-.1,0-.1,0h.1c0-.1.1,0,.1,0ZM460.4,88.4h-.1c0-.1.1-.3.1-.3h.1c0,.1-.1.3-.1.3ZM460.2,89.1h-.1,0c0,0,0,0,0,0ZM460,88h0c0,0,.2,0,.2,0h0c0,0-.1.2-.1.2h-.1ZM460.1,88.4h.1c0,.1-.1.3-.1.3h-.1c0-.1.1-.3.1-.3ZM460.5,92.9h-1.1l.4-3.6h.9v3.6h-.1ZM460.5,93.3h0c0,0,0,0,0,0v.2h-.1ZM460.5,94.2h.1c0-.1,0,.1,0,.1h-.1ZM460.6,95h0s0,0,0,0h0ZM460.4,94.6l-.2.2-.2-.2.2-.2.2.2ZM460.2,94l-.2-.2.2-.2.2.2-.2.2ZM459.9,95h-.2.1c0-.1.1,0,.1,0ZM459.6,93.3h0c0,0,.3,0,.3,0h0c0,0-.2.3-.2.3l-.2-.2ZM459.8,94l.2.2-.2.2-.2-.2.2-.2ZM458.4,101.8l.7-6.6h1.5v6.7c-.7,0-1.5,0-2.2-.1ZM458.4,102.2c.7,0,1.4,0,2.1.1v2.4c-.8,0-1.5,0-2.3-.1l.3-2.4ZM456.1,101.5l1.3-6.2h1.5l-.7,6.5c-.7,0-1.5-.2-2.2-.3ZM456.1,101.8c.7.1,1.3.2,2,.3l-.3,2.4c-.8,0-1.5-.2-2.3-.4l.5-2.4ZM454.8,101.5c.3,0,.6.2.9.2l-.5,2.4c-.4,0-.7-.2-1.1-.3l.7-2.4ZM452.8,96.3v-2h.1v-.2h.2c0-.1-.3-.1-.3-.1v-.7l3.6-6.3-3.6,9.3ZM446.7,105.3h0v-.2h.2v-.2h-.2s-.2-1.8,1.6-2c0,0,.1,0,.2,0s.2,0,.2,0c.5,0,.8.2,1.1.5l-.5,1.1c0,0-.1,0-.2,0-1.1,0-1.1.5-1.1.5v2h.5l-.9,2.3c-.3,0-.7,0-1,0v-3.9ZM438.5,92.1l-1.1.6c-1.1-.8-2.2-.7-2.2-.7v-1.6h.3v-2s0-.1-.1-.2c0,0,0,0,0-.1,0,0,.2,0,.2-.1h0c0-.1,0-.2,0-.2h.4c0-.1,0-.1,0-.1l.5-.2c.5,1.6,1.2,3.1,2,4.6ZM438.4,84.4c.1.7.3,1.3.5,2l-2.3.8c-.2-.7-.4-1.5-.6-2.2l2.4-.5ZM438.3,84.1l-2.4.5c-.2-.7-.3-1.5-.4-2.3l2.4-.3c0,.7.2,1.4.3,2ZM440.1,75.2v.6c0,.1-.5.3-.8.3s-.2-.2-.4-.3c0-.1-.2,0-.4,0,0-.3,0-.5.1-.8l1.4.3ZM440.2,72.9c-.3.3-.3.7-.3.7,0,.3.2.3.2.3v1.1l-1.3-.3c.2-.7.3-1.4.6-2.1l.9.3ZM459.2,78.9l-16.8-5.5c-.1-.3-.4-.9-1.1-1,0,0,0,0,0-.2,0,0,.2,0,.2-.2,0,0,0-.2-.2-.2v-.2h0s0,0,0,0,0,0,0,0h0c0-.1,0-.1,0-.1s0,0,0,0h0c0,0,0,0,0,0,0,0,0,0,0,0s0,0,0,0h0v.2c-.2,0-.2.2-.2.2,0,.2.2.2.2.2,0,0,0,.2,0,.2-.3,0-.5.2-.7.3l-1-.3c.2-.7.5-1.4.8-2l19.1,8.5ZM459.3,78.8l-19.1-8.5c.3-.7.6-1.3,1-1.9l18.1,10.4ZM459.3,78.7l-18.1-10.4c.4-.6.8-1.2,1.2-1.8l16.9,12.3ZM459.4,78.5l-16.9-12.3c.4-.6.9-1.2,1.4-1.7l15.5,14ZM459.5,78.4l-15.5-14c.5-.5,1-1.1,1.5-1.5l14,15.5ZM459.7,78.3l-14-15.5c.5-.5,1.1-.9,1.7-1.4l12.3,16.9ZM459.8,78.2l-12.3-16.9c.6-.4,1.2-.8,1.8-1.2l10.4,18.1ZM459.9,78.1l-10.4-18.1c.6-.4,1.3-.7,1.9-1l8.5,19.1ZM460.1,78l-8.5-19.1c.7-.3,1.3-.6,2-.8l6.5,19.9ZM459.5,88.1h-.1c0-.1,0-.2,0-.2h.2c0,0-.1.2-.1.2ZM459.5,88.7h-.1c0-.1.1-.3.1-.3h0c0,0,0,.2,0,.2h0ZM459.5,89.1h0c0,0,0,0,0,0h0s-.1,0-.1,0ZM459.1,88.3h.1c0-.1.1,0,.1,0h-.1c0,.1-.1,0-.1,0ZM459.2,88.7h.1c0,.1-.1.3-.1.3h-.1c0-.1.1-.3.1-.3ZM458,93.5l-.2-.2h0c0,0,.2,0,.2,0h0c0,0-.2.3-.2.3ZM457.2,93.5h-.1c0-.1,0-.3,0-.3h.3c0,0-.2.3-.2.3ZM457.2,94.4l-.2-.2.2-.2.2.2-.2.2ZM457.1,95h0c0-.1.1,0,.1,0h-.2ZM457.2,95.3l-1.3,6.2c-.3,0-.7-.2-1-.2l1.6-5.9h.7ZM456.9,94.6l-.3.3v-.4c.1,0,.3.2.3.2ZM452.8,91.6h.2v-.2h.2v-.2h-.2s.1-.1.1-.6,0-.2-.2-.3l4.8-6.6-.9,2.3-4,7v-1.4ZM439.1,93.2v.8c-.3,0-.7-.2-.9-.5-.2-.2-.3-.4-.5-.5l1-.6c.2.3.3.5.5.8ZM439.1,89.3v2.5l-.3.2c-.4-.7-.7-1.4-1.1-2.1l1.4-.6ZM439.1,86.8v2.1l-1.5.7c-.3-.7-.6-1.4-.8-2.2l2.3-.8s0,0,0,.1ZM439.1,84.2v1.5c-.1-.5-.3-1-.4-1.4h.4ZM439.1,81.9v2.2h-.4c-.1-.6-.3-1.3-.3-2.1h.7ZM439.1,79.6v2.1h-.8c0-.6-.1-1.4-.1-2.1h.9ZM438.7,76.6c0,.1,0,.2-.1.3s0,.1,0,.2h-.2c0-.4,0-.8.2-1.1.3,0,.1.5.2.7ZM443.6,77.3s.2-.3,0-.4c-.1-.1-.1-.2-.1-.3,0-.1,0-.5,0-.6l15.4,3.3-15.5-1.6h0c0,0,.2,0,.2,0v-.2h-.2ZM441.1,74.3c.5,0,.5.4.5.4v.7l-1-.2v-.5s0-.4.5-.4ZM442.2,75.7l1.1.2c0,.1,0,.2-.3.2s-.8-.2-.8-.3h0ZM459.1,79.8l-16,3.4v-1.7l16-1.7ZM459.1,79.6l-15.9,1.7v-1.7h15.9ZM443.1,78.8c-.1-.1.1-.3,0-.5-.1-.1,0-.4,0-.4h.6c0-.1,15.4,1.5,15.4,1.5h-15.9v-.3s.1-.2,0-.4ZM438.6,77.3h-.2v.2h.2v.4h.5s0,.3,0,.4c-.1.1.1.3,0,.5-.1.1,0,.4,0,.4v.3h-.9c0-.7,0-1.5.1-2.2h.3s0,0,0,0ZM448.8,83.3s0,0,0,0c0,0,0-.2-.2-.1-.1,0,0,.2-.1.2h0s0,0,0,0l-5.2,1.7v-1.8l16-3.4-10.3,3.4ZM458.6,88.8h0c0,.1,0,0,0,0h0ZM458.5,88.3h.1c0-.1,0,0,0,0v.2s0,0,0,0h-.1ZM452.2,89.9v-.4s.2,0,.2-.2h0c0,0-.2,0-.2,0l6.2-6.8-.3.8-5.2,7.1c-.3,0-.6-.1-.6-.4ZM447.5,97.5v-1.9h1.4l-1.4,1.9ZM439.1,92.5c0,0-.1-.2-.2-.3h.2c0-.1,0,.3,0,.3ZM448.9,84.7s0,0,0,0c-.1,0,0-.3,0-.4s.3-.2.3-.4,0-.3-.1-.3c0,0-.1.2-.1,0s0-.2,0-.2l10.3-3.3h0s-10.3,4.6-10.3,4.6ZM450.5,85.3h-1.3v-.4h-.2s0,0,0,0l10.1-4.5h0s-8.5,4.9-8.5,4.9ZM450.5,86.8c0,0-.1-.2-.1-.4h0v-.4s.5,0,.5-.5v-.2l8.1-4.7h0c0,0-8.3,6.2-8.3,6.2ZM451.9,87.3c0,0-.1-.1-.2-.1s-.2,0-.2.2,0,0,.1.2l-1.2,1.1s0,0,0-.1v-.5h.2v-.2h-.1v-.4h.3v-.3h.1v-.3s0,0-.1,0l8.1-5.9v.2c0,0-6.9,6.1-6.9,6.1ZM443.1,93.5v-1.2l1.1-.8h0c0,0,.2,0,.2,0v2.4h0c0,0-.8,0-.8,0-.2-.2-.3-.3-.4-.5ZM443.1,94s0,0,0,0h0ZM447.9,85.3h.1c0,0,0,0,0,0h-.1ZM443.1,89.7l2-1.1c.1.2.2.3.2.3,0,0,0,.1,0,.1s0,0,0,.1h-.3c0,.2.2.3.2.3v.4c0,.4-.9.2-.9.7s.1.6.1.6h-.2v.2h0l-1,.8v-2.4ZM449.7,90.4s-.4,0-.4.3v.3h-1.3l1.4-1.3v.2s0,.6.3.6ZM449.4,89.5l-1.5,1.3h0c0-.3-.4-.4-.4-.4.3,0,.3-.6.3-.6v-.7s.3,0,.3-.2.1-.2.5-.2.5,0,.5.2.3.2.3.2v.4ZM446.9,88.1v.5c0,.5-.6.7-.6.7h0c0,0-.4,0-.4,0,0,0,0-.1,0-.1s0,0,0-.1.4-.2.4-.8,0,0,0,0l.8-.5v.2h-.1v.2h.2ZM446.6,85.9c.1,0,.3.1.3.1v.4h0c0,.4-.4.5-.4.5v.3h.1v.3h.2l-.8.5c-.1-.2-.4,0-.4-.2s.1-.1.1-.3-.1-.2-.2-.2-.2,0-.2.2.1,0,.1.3-.4,0-.4.5,0,.2,0,.3l-1.9,1.1v-2.1l3.5-1.5ZM451.6,88.9c0,0,0,.1,0,.1s0,0,0,.1h-.4c0,0-.4,0-.5-.3l.8-.7c0,.5.3.7.3.8ZM448.3,83.6c0,.1,0,.2,0,.3,0,.1-.1,0-.1.2s.2.3,0,.5c0,.1-.1.3-.1.3h-.2v.2l-.5.2h-1.1v.2c0,.1,0,.2,0,.3l-3.3,1.5v-1.9l5.2-1.7ZM449.7,95.5v2h-2l1.4-2h.6ZM458.4,81.9l-6.5,7.2s0,0,0,0c0,0,0,0,0-.1s.3-.2.3-.8-.4-.2-.4-.5,0,0,0,0l6.8-6.1v.4ZM458.5,89.1h-.1,0c0,0,0,0,0,0ZM458.4,88.7h0s0-.2,0-.2h.1c0,.1-.1.2-.1.2ZM458.8,88.9h0c0,0,0,0,0,0h0ZM458.8,87.7h-.2l1-3.6-.8,3.6ZM459,88.1h0s0-.2,0-.2h.1c0,0-.1.2-.1.2ZM459,89.1h-.1,0c0,0,0,0,0,0ZM459,88.7h-.1c0-.1.1-.3.1-.3h.1c0,.1-.1.3-.1.3ZM459.1,79.1l-15.1-3.2s0,0-.1-.1c-.2,0-.4-.1-.5,0l-1.2-.3v-1.6s.2,0,.2-.3l16.7,5.4ZM440.6,75.3l1,.2v.8h-1v-1ZM435.5,102.5s.3,0,.3-.4,0-.5.4-.5.3.2.3.5.4.4.4.4v2.4h-1.4v-2.4ZM435.1,95.6h1.3v1.8h-1.3v-1.8ZM433.1,89c0-.2,0-.3.1-.3v1.7h.4v1.7l-.6-.3v-2.9ZM433.3,84.6c-.2,0-.3-.4-.3-1,0-.5,0-1,.2-1,.2,0,.3.4.3,1,0,.5,0,1-.2,1ZM457.7,92.9h-.5l1-3.6h.3l-.8,3.6ZM457.7,93.8v-.2s.1,0,.1,0h-.1ZM457.4,93.7l.2-.2v.3c0,0-.2-.1-.2-.1ZM457.6,94.4h0s.2.2.2.2l-.2.2h0c0,0,0-.4,0-.4ZM458.1,95h-.2.1c0,0,0,0,0,0ZM458,94.4l-.2-.2.2-.2.2.2-.2.2ZM458.7,94.6l-.2.2-.2-.2.2-.2.2.2ZM458.5,94l-.2-.2.2-.2.2.2-.2.2ZM458.9,93.5l-.2-.2h0c0,0,.3,0,.3,0h0c0,0-.2.3-.2.3ZM459,94.9h0c0,0-.2,0-.2,0h.1c0-.1,0,0,0,0ZM458.9,94.4l-.2-.2.2-.2h.1c0,.1,0,.3,0,.3h-.1ZM459.2,92.9h-1.3l.8-3.6h.9l-.4,3.6ZM459.6,94.6l-.2.2-.2-.2h0s.2-.2.2-.2l.2.2ZM459.3,94h-.1c0-.1,0-.3,0-.3h0c0,0,.2.1.2.1l-.2.2ZM459.7,87.7h-.7l1-4.9h.2l-.5,4.9ZM460,88.9h-.1c0,.1,0,0,0,0v-.2s0,0,0,0h.1ZM459.8,88.4h0s0-.3,0-.3h.1c0,.1-.1.3-.1.3ZM456.1,57.5c.7-.2,1.4-.3,2.2-.3l2.2,20.8-4.3-20.4ZM460.3,78l-6.5-19.9c.7-.2,1.4-.4,2.1-.6l4.3,20.4ZM432.4,94.6h.6v1.1h-.6v-1.1ZM428.1,104.6v3.9c-.7,0-1.4,0-2.1,0v-3.9h2.1ZM427.3,94.6v1.1h-.6v-1.1h.6ZM426.1,91.6v-3.7s0-.8.9-.8.9.8.9.8v3.7h-1.9ZM460.6,57.1v20.9l-2.2-20.8c.7,0,1.4-.1,2.2-.1ZM460.7,95.3h1.5l.7,6.6c-.7,0-1.4.1-2.2.1v-6.7ZM460.7,94.9h0s0,0,0,0h0ZM460.7,94.1h.1c0,.1-.1.2-.1.2v-.2ZM460.7,93.2h.1c0,0-.1.2-.1.2v-.2ZM461.3,94.6l-.2.2-.2-.2.2-.2.2.2ZM461.1,94l-.2-.2.2-.2.2.2-.2.2ZM461.5,93.5l-.2-.2h0c0,0,.3,0,.3,0h0c0,0-.2.3-.2.3ZM461.6,95h-.2.1c0-.1.1,0,.1,0ZM461.5,94.4l-.2-.2.2-.2.2.2-.2.2ZM460.7,89.3h.9l.4,3.6h-1.2v-3.6ZM460.7,88.5h0c0,0,0,.1,0,.1h0ZM460.7,88h0c0,0,0,.1,0,.1h0ZM461.1,88.9h-.1c0,.1-.1,0-.1,0h.1c0-.1.1,0,.1,0ZM461,88.4h-.1c0-.1.1-.3.1-.3h.1c0,.1-.1.3-.1.3ZM461.3,88.1h-.1c0-.1,0-.2,0-.2h.2c0,0-.1.2-.1.2ZM461.3,89.1h-.1,0c0,0,0,0,0,0ZM461.3,88.7h-.1c0-.1.1-.3.1-.3h.1c0,.1-.1.3-.1.3ZM460.7,82.8h.2l.5,4.9h-.7v-4.9ZM460.7,57.1c.7,0,1.5,0,2.2.1l-2.2,20.8v-20.9ZM460.8,54.3c.8,0,1.5,0,2.3.1l-.3,2.4c-.7,0-1.4,0-2.1-.1v-2.4ZM463.5,54.4c.7,0,1.3.2,2,.3v.5h.2l-.4,1.9c-.7-.1-1.3-.2-2-.3l.3-2.4ZM467.7,55.3c.2,0,.4.1.6.2l-.8,2.3c-.6-.2-1.3-.4-2-.5l.4-2h1.7ZM470.8,56.4l-1,2.2c-.6-.3-1.3-.5-1.9-.7l.8-2.3c.7.2,1.5.5,2.2.8ZM471.1,56.5c.7.3,1.4.7,2.1,1l-1.2,2.1c-.6-.3-1.2-.6-1.8-.9l1-2.2ZM475.3,59l-1.4,2c-.6-.4-1.1-.8-1.7-1.1l1.2-2.1c.7.4,1.3.8,1.9,1.3ZM475.6,59.2s0,0,0,0v.4h.5c.4.3.8.7,1.2,1l-1.6,1.8c-.5-.5-1-.9-1.6-1.3l1.4-2ZM479.3,62.5l-1.8,1.6c-.5-.5-.9-1-1.5-1.4l1.6-1.8c.6.5,1.1,1.1,1.6,1.6ZM481,64.6l-2,1.4c-.4-.6-.8-1.1-1.3-1.6l1.8-1.6c.5.6,1,1.2,1.5,1.8ZM482.4,66.8l-2.1,1.2c-.3-.6-.7-1.2-1.1-1.7l2-1.4c.5.6.9,1.3,1.3,1.9ZM483.1,68v.4h.2c.1.2.2.5.3.7l-2.2,1c-.3-.6-.6-1.2-.9-1.8l2.1-1.2c.2.3.4.6.5,1ZM483.1,66.7v.6c0-.1-.2-.3-.2-.4h.2ZM483.8,69.4c.3.7.6,1.4.8,2.2l-2.3.8c-.2-.7-.5-1.3-.7-1.9l2.2-1ZM485.3,74.1l-2.4.5c-.2-.7-.3-1.3-.5-2l2.3-.8c.2.7.4,1.5.6,2.2ZM484.9,71.6h-.1s.1,0,.1,0ZM485.7,76.7l-2.4.3c0-.7-.2-1.4-.3-2l2.4-.5c.2.7.3,1.5.4,2.3ZM485.9,79.3h-2.4c0-.7,0-1.4-.1-2.1l2.4-.3c0,.8.1,1.5.1,2.3ZM485.8,82l-2.4-.3c0-.7,0-1.4.1-2.1h2.4c0,.8,0,1.5-.1,2.3ZM485.4,84.6l-2.4-.5c.1-.7.2-1.3.3-2l2.4.3c0,.8-.2,1.5-.4,2.3ZM484.7,87.1l-2.3-.8c.2-.6.4-1.3.5-2l2.4.5c-.2.8-.4,1.5-.6,2.2ZM483.8,89.6l-2.2-1c.3-.6.5-1.3.7-1.9l2.3.8c-.2.7-.5,1.5-.8,2.2ZM482.6,92l-2.1-1.2c.3-.6.7-1.2.9-1.8l2.2,1c-.3.7-.7,1.4-1.1,2.1ZM481.2,94.2l-2-1.4c.4-.6.8-1.1,1.1-1.7l2.1,1.2c-.4.7-.8,1.3-1.3,1.9ZM479.5,96.3l-1.8-1.6c.5-.5.9-1,1.3-1.6l2,1.4c-.5.6-.9,1.2-1.5,1.8ZM477.7,98.1l-1.6-1.8c.5-.5,1-.9,1.5-1.5l1.8,1.6c-.5.6-1.1,1.1-1.6,1.6ZM475.6,99.8l-1.4-2c.6-.4,1.1-.8,1.6-1.3l1.6,1.8c-.6.5-1.2,1-1.8,1.5ZM473.4,101.3l-1.2-2.1c.6-.4,1.2-.7,1.7-1.1l1.4,2c-.6.4-1.3.9-1.9,1.3ZM471,102.5l-.5-1.1-.5-1.2c.6-.3,1.2-.6,1.8-.9l1.2,2.1c-.7.4-1.4.8-2.1,1.1ZM464.9,87l6.9,12c-.6.3-1.2.7-1.9,1l-5-12.9ZM465.6,101.8c.3,0,.6-.1.9-.2l.6,2.4c-.4,0-.7.2-1.1.3l-.5-2.4ZM465.2,101.8l.5,2.4c-.8.2-1.5.3-2.3.4l-.3-2.4c.7,0,1.4-.2,2-.3ZM462.4,94.9h0c0,.1-.1.1-.1.1h0c0,0,0-.1,0-.1ZM462.4,94l.2.2-.2.2h-.1c0-.1,0-.3,0-.3h.1ZM462.3,93.2h.3c0,0-.2.3-.2.3l-.2-.2h0ZM462.6,93.7l.2-.2.2.2-.2.2-.2-.2ZM462.8,94.4l.2.2-.2.2-.2-.2.2-.2ZM461.8,89h0c0,0-.1,0-.1,0h0ZM461.8,88.4h.1c0,.1-.1.3-.1.3h-.1c0-.1.1-.3.1-.3ZM461.7,88h.2c0,0-.1.2-.1.2h-.1c0-.1,0-.2,0-.2ZM462.2,88.9h-.1c0,.1-.1,0-.1,0h.1c0-.1.1,0,.1,0ZM462.1,88.4h-.1c0-.1.1-.3.1-.3h.1c0,.1-.1.3-.1.3ZM461.2,78l6.4-19.8c.7.2,1.4.5,2,.8l-8.5,19.1ZM461.4,78.1l8.5-19.1c.7.3,1.3.6,1.9,1l-10.4,18.1ZM461.5,78.2l10.4-18.1c.6.4,1.2.8,1.8,1.2l-12.3,16.9ZM461.7,78.3l12.3-16.9c.6.4,1.2.9,1.7,1.4l-14,15.5ZM461.8,78.4l14-15.5c.5.5,1.1,1,1.5,1.5l-15.5,14ZM461.9,78.5l15.5-14c.5.5.9,1.1,1.4,1.7l-16.9,12.3ZM462,78.7l16.9-12.3c.4.6.8,1.2,1.2,1.8l-18.1,10.4ZM462.1,78.8l18.1-10.4c.4.6.7,1.3,1,1.9l-19.1,8.5ZM462.1,78.9l19.1-8.5c.3.7.6,1.3.8,2l-19.9,6.5ZM462.2,79.1l19.9-6.5c.2.7.4,1.4.6,2.1l-20.4,4.3ZM462.2,79.3l20.4-4.3c.2.7.3,1.4.3,2.2l-20.8,2.2ZM462.2,79.4l20.8-2.2c0,.7.1,1.4.1,2.2h-20.9ZM462.2,79.6h20.9c0,.7,0,1.5-.1,2.2l-20.8-2.2ZM462.2,79.8l20.8,2.2c0,.7-.2,1.4-.3,2.2l-20.4-4.3ZM462.2,79.9l20.4,4.3c-.2.7-.3,1.4-.6,2.1l-19.8-6.4ZM462.2,80.1h0s19.8,6.4,19.8,6.4c-.2.7-.5,1.4-.8,2l-19-8.5ZM462.3,80.4h0s18.8,8.3,18.8,8.3c-.3.7-.6,1.3-1,1.9l-17.8-10.3ZM462.4,80.7h0c0,0,17.6,10.1,17.6,10.1-.4.6-.8,1.2-1.2,1.8l-16.4-11.9ZM462.6,81.2v-.2c0,0,16.1,11.8,16.1,11.8-.4.6-.9,1.2-1.4,1.7l-14.8-13.3ZM462.3,88h0c0,0,0,0,0,0v.2s0,0,0,0h-.1ZM462.5,89.1h-.1,0c0,0,0,0,0,0ZM462.4,88.7h-.1c0-.1.1-.3.1-.3h.1c0,.1,0,.2,0,.2h-.1ZM462.6,88.9h0s0,0,0,0h0ZM462.5,87.7h0l-.8-3.6,1,3.6h-.2ZM462.8,88.9h0c0,0,0,0,0,0h0ZM462.7,88.4h0c0,0,0-.2,0-.2h0c0,0,.1,0,.1,0h-.1ZM462.9,81.9v-.4c-.1,0,14.4,13.1,14.4,13.1-.5.5-1,1.1-1.5,1.5l-12.8-14.3ZM463.4,83.1l-.3-.8,12.6,13.9c-.5.5-1.1.9-1.7,1.4l-10.5-14.5ZM464.5,86l-.9-2.3,10.2,14c-.6.4-1.2.8-1.8,1.2l-7.4-12.9ZM464.4,94.6l.2-.2v.4c.1,0-.2-.3-.2-.3ZM464.8,95.3l1.6,5.9c-.3,0-.7.2-1,.2l-1.3-6.2h.7ZM464.2,94.9h.1c0,.1-.2.1-.2.1h0ZM464.2,94l.2.2-.2.2-.2-.2.2-.2ZM464.2,93.2v.2s0,.1,0,.1l-.2-.2h0c0,0,.2,0,.2,0ZM463,89.1h-.1,0c0,0,0,0,0,0ZM463,88.7h-.1c0-.1,0-.2,0-.2v.2c0,0,0,0,0,0ZM463.1,93.3h0c0,0,.2,0,.2,0h0c0,0-.2.3-.2.3l-.2-.2ZM463.4,95h-.2.1c0,0,0,0,0,0ZM463.3,94.4l-.2-.2.2-.2.2.2-.2.2ZM463.6,92.9l-.8-3.6h.3l1,3.6h-.5ZM463.8,93.9v-.3c0,0,.1.2.1.2h-.1ZM463.5,93.7h0c0,0,0,.1,0,.1h-.1ZM463.7,94.4h0s0,.3,0,.3h0c0,0-.2-.1-.2-.1l.2-.2ZM460.9,78l2.2-20.8c.7,0,1.5.2,2.2.3l-4.3,20.4ZM465.4,57.6c.7.2,1.4.3,2.1.6l-6.4,19.8,4.3-20.4ZM461.4,88.3h0c0,0,0,.1,0,.1h-.1ZM461.5,88.7h0s0,.2,0,.2h0s-.1,0-.1,0h.1ZM461.7,88.3h0s0,0,0,0ZM461.6,87.7l-.5-4.9h.2l1,4.9h-.7ZM462.2,92.9l-.4-3.6h.9l.8,3.6h-1.3ZM461.8,93.7l.2-.2h0c0,0,0,.3,0,.3h-.1c0,.1-.2,0-.2,0ZM462,94.4l.2.2h0s-.2.2-.2.2l-.2-.2.2-.2ZM463.1,104.6c-.8,0-1.5.1-2.3.1v-2.4c.7,0,1.4,0,2.1-.1l.3,2.4ZM463.1,101.8l-.7-6.5h1.5l1.3,6.2c-.7.2-1.4.3-2.2.3ZM23.4,84.9c0,0,0-.1,0-.3,0-.2.2-.3.2,0,0,.2,0,.3.1.4h-.4ZM66.7,84.5c0-.3.1,0,.2,0,0,.1,0,.2,0,.3h-.4c0,0,.2-.2.1-.4ZM509.9,112.5s-2-.1-5.7-.4c-3.7-.2-9.2-.6-16.1-.9-4.2-.2-8.9-.5-14.1-.7l-1.4-3.5h.5v-2s0-.5-1.1-.5-.2,0-.2,0l-.7-1.7c1.6-.7,3-1.6,4.4-2.5l1.5,2s0,0,.1,0,0,0,0,0c0,0,0,0,0-.1,0,0,0,0,0-.1l-1.5-2c1.3-1,2.6-2.1,3.7-3.4l1.3,1.2c-.6.1-.6.4-.6.4v2h2.3v-2s0-.5-1.1-.5h0l-1.5-1.4c1.1-1.2,2.1-2.6,3-4l2.2,1.3s0,0,0,0c0,0,.1,0,.1,0,0,0,0,0,0-.1,0,0,0,0,0,0l-2.2-1.3c.8-1.4,1.5-3,2-4.6l.5.2s0,0,0,0l1,.3c-.5.1-.5.4-.5.4v2h2.3v-2s0-.4-.7-.4l-1.8-.6s0,0,0,0l-.5-.2c.5-1.6.9-3.2,1-4.9l2.5.3h0c0,0,.2,0,.2-.1s0-.2-.1-.2l-2.5-.3c0-.8.1-1.7.1-2.5s0-1.7-.1-2.5h1.1c0,0,0,0,0,0v2h2.3v-2s0-.5-1.1-.5-.3,0-.4,0h0s-1.9.2-1.9.2c-.2-1.7-.5-3.3-1-4.9l2.4-.8s0,0,0,0c0,0,0,0,0-.1,0,0-.1-.1-.2-.1l-2.4.8c-.3-1-.8-2.1-1.2-3h1.7v-2s0-.4-1-.5h0c0,0-.1,0-.2,0-.8,0-.9.4-1,.5l-.4.2c-.8-1.4-1.8-2.8-3-4.1l1.9-1.7s0,0,0-.1c0,0,0,0,0-.1,0,0-.2,0-.2,0l-1.9,1.7c-.9-1-1.8-1.8-2.8-2.7h1.2v-2s0-.5-1.1-.5-1.1.5-1.1.5v1.1c-1.5-1-2.9-1.8-4.5-2.5l1-2.3s0,0,0-.1,0,0,0,0c0,0-.2,0-.2,0l-1,2.3c-1-.5-2.1-.8-3.2-1.2v-1.7s0-.5-1.1-.5-1.1.5-1.1.5v1.2c-1.5-.3-3-.4-4.6-.4v-2.5c0,0,0-.2-.2-.2s-.2,0-.2.2v2.5c-1.6,0-3.1.2-4.6.4v-1.2s0-.5-1.1-.5-1.1.5-1.1.5v1.7c-1.1.3-2.2.7-3.2,1.2l-1-2.3c0,0-.1-.1-.2,0s-.1.1,0,.2l1,2.3c-1.5.7-3,1.5-4.3,2.5v-.2c-.1,0-.1-1-.1-1,0,0,0-.5-1.1-.5s-1.1.5-1.1.5v2h1.2c-1,.8-1.9,1.7-2.8,2.7l-1.9-1.7c0,0-.2,0-.2,0,0,0,0,0,0,.1,0,0,0,0,0,.1l1.9,1.7c-1.1,1.3-2.1,2.6-2.9,4.1l-.4-.2c0,0-.1-.5-1.1-.5s-1.1.5-1.1.5v2h1.7c-.5,1-.9,2-1.2,3l-.5-.2s0,0,0,0l-1.9-.6c0,0-.2,0-.2.1,0,0,0,0,0,.1,0,0,0,0,0,0l1.9.6s0,0,0,0l.5.2c-.5,1.6-.9,3.2-1,4.9l-1.9-.2h0c-.1,0-.2,0-.4,0-1.1,0-1.1.5-1.1.5v1.5c-.8-.8-1.8-1.5-3.2-2v-.2h0v-1.8h0v-.4s.1-.1,0-.3c0,0,0,0,0-.2s0-.6,0-.6,0,.4,0,.5-.2-.1-.3-.2-.2-.2-.2-.3v-.6h0v-.3s0-.4-.6-.7c0,0-.1,0-.1-.2,0,0,0-.1,0-.3.2,0,.3-.2.3-.4s-.1-.3-.3-.4v-.6h.3v-.2h-.3v-.4h-.1v.4h-.3v.2h.3v.6c-.2,0-.3.2-.3.4s.1.3.3.4c0,.2,0,.3,0,.3,0,.2-.2.2-.2.2-.5.3-.6.7-.6.7v.2h0v.7c0,.2-.1.2-.2.3,0,0-.2.2-.3.2-.1,0,0-.5,0-.5s0,.5,0,.6,0,.2,0,.2c0,.2,0,.3,0,.3v.3h0v1.8h0v.2c-4.6,1.6-5.2,5.5-5.2,5.5-.2.2-.2,1-.2,1v.7c0,0,0,.6,0,.6,0,.2-.1.1-.2,0,0,0-.1,0,0-.2,0-.1,0-.2-.2-.2s-.2.1-.1.2,0,.2,0,.2c-.1,0-.2.2-.2.4s-.2.3-.2.4,0,.2.1.2.2.2,0,.2,0,.1,0,.2c0,.1,0,.3,0,.3l-.2.3c0,.2.1.2.1.2v1.1l-.5.2h0c0,.2.2.2.2.2,0,.1.2.2.2.2v.7c0,.2,0,.4,0,.4v2.7s-1.7-.2-3,1.4c-.3.4-.6.5-.9.5v-14.9s.1-.2,0-.4c-.1-.1.1-.3,0-.5s0-.4,0-.4h.6v-.4h.2v-.2h-.2s.2-.3,0-.4c-.1-.1-.1-.2-.1-.3,0-.1-.1-.7.2-.7s.2,0,.3,0c0,0,0-.2-.1-.2-.2,0-.4-.2-.6,0-.2.2-.1.3-.4.3s-.8-.2-.8-.3v-1.9s.2,0,.2-.3c0,0-.3-1.1-1.2-1.1,0,0,0,0,0-.2,0,0,.2,0,.2-.2,0,0,0-.2-.2-.2v-.2h0s0,0,0,0,0,0,0,0h0c0-.1,0-.1,0-.1s0,0,0,0h0c0,0,0,0,0,0,0,0,0,0,0,0s0,0,0,0h0v.2c-.2,0-.2.2-.2.2,0,.2.2.2.2.2,0,.1,0,.2,0,.2-.9,0-1.2,1.1-1.2,1.1,0,.3.2.3.2.3v1.9c0,.1-.5.3-.8.3s-.2-.2-.4-.3c-.2-.2-.4,0-.6,0-.2,0-.2.3-.1.2,0,0,0,0,.3,0s.2.5.2.7c0,.1,0,.2-.1.3-.1.1,0,.4,0,.4h-.2v.2h.2v.4h.6s0,.3,0,.4.1.3,0,.5c-.1.1,0,.4,0,.4v14.9h-1.3v-2.4h.2v-.2h.2v-.2h-.2s.1-.1.1-.6-.9-.2-.9-.7v-.4s.2,0,.2-.2h0c0,0-.3,0-.3,0,0,0,0-.1,0-.1s0,0,0-.1.3-.2.3-.8-.4-.2-.4-.5.1-.1.1-.3-.1-.2-.2-.2-.2,0-.2.2.1,0,.1.3-.4,0-.4.5.4.7.4.8,0,.1,0,.1,0,0,0,.1h-.5c0,0-.6-.1-.6-.6v-.5h.2v-.2h-.1v-.4h.3v-.3h.1v-.3s-.4,0-.4-.5h0v-.4s.5,0,.5-.5v-.2h-1.6v-.4h-.2c0,0,0-.2-.1-.3,0-.1,0-.3,0-.5s-.2,0-.1-.2c0-.1,0-.3,0-.4s0,0-.2,0,0-.2-.1-.2-.1,0-.2.1c0,0,0,.2,0,.4s0,0-.1,0-.1,0-.1.3.3.3.3.4,0,.4,0,.4c-.1,0-.1.2-.1.2h-.2v.4h-.8v-23.8s-.4-1.6-2.2-2.7c-1.2-1.9-3.2-2.5-4.8-2.5s-2,.4-2,.4v-2.4c-4.3.7-5,3.7-5,3.7v43.4h-1.3V34.2s0-.2-.3-.2-.3.2-.3.2c0,16.4-16.1,21.1-22.4,21.1s-6.9-2.3-6.9-2.3h-.4v28.3c-.2-2-.4-3.9-.6-5.5.1-1.6.2-3.2.2-4.6,0,0-.2-3.4-.9-8.2v-5.2c1.4-6.8,1.9-19.3,1.9-19.3,0-5.4-1.3-17-1.3-17h-.5v-2.1h-2.2v-1.1l-10.3-.8v78.1h-1.4v-51.5h0v-14.7c-.1,0-.2-.1-.2-.1,0,0-.1,0-.1.1v14.7h-.2l-9.3,8.9h-4.3v5.5h-2.2v1.5h-.3v6.9h-1.7v-8.1s0,0,0-.1,0,0,0-.1h0c0,0,0-.1,0-.1s0,0,0,0h0c0,0,0,0,0,.2s0,0,0,.1v.4c0,.3-.3,1.2-.3,2s-.2.9-.4,1.2c-.2.4-.4.7-.3,1,.2.5.5.6.7.6s.1,0,.2,0,0-.2.1-.4v3.2h-1.8v1.4h.2v1.5h-.2l-1.3,3.7h-25.4v-2.4h.7l.2-1v-1.2h-.6v-3.5l-.5-.7v-3.3l.3-.4v-1.4l-.6-.8h-.2v-1.2l-.2-.2v-3.7l-.6-.9v-2.5s.2-.7-.7-1.2c0,0-.4-.3-.4-1,0,0,.2-.3,0-.7-.2-.4-.3-1-.3-2,0,0,0-1.4,0-1.4s0,1.4,0,1.4c0,1-.1,1.6-.3,2-.2.4,0,.7,0,.7,0,.8-.4,1-.4,1-.9.5-.7,1.2-.7,1.2v2.5l-.6.9v3.7l-.2.2v1.2h-.2l-.6.8v1.4l.3.4v3.3l-.5.7v3.5h-.6v1.8c.1,0-.7,0-.7,0l-4.7-6.4v-2.8h-.3v2.1h-6.3v-2.1l.3-.4v-1.4l-.6-.8h-.2v-1.2l-.2-.2v-3.7l-.6-.9v-2.5s.2-.7-.7-1.2c0,0-.4-.3-.4-1,0,0,.2-.3,0-.7-.2-.4-.3-1-.3-2,0,0,0-1.4,0-1.4s0,1.4,0,1.4c0,1-.1,1.6-.3,2-.2.4,0,.7,0,.7,0,.8-.4,1-.4,1-.9.5-.7,1.2-.7,1.2v2.5l-.6.9v3.7l-.2.2v1.2h-.2l-.6.8v1.4l.3.4v2.1h-12.9v-16.7h.2v-1.3h-.2v-5.7l-.4-1.9h-.3v-8.1l-.3-.6v-.4h-.4v-2.3l-.6-1.6v-3.4l-.4-1.7h-.3l-.3.8h-.5v-3.7h.1v-.5h-.1v-1.8l-.3-.7h-.4v-.9l-.3-.6v-2.7s-.1-.6-.6-.7c0,0,0-.4-.3-.6,0,0,.2-1.5-.5-2.4v-2.4l-.2-3.7s0-.2-.1-.2-.1.2-.1.2l-.2,3.7v2.4c-.7.9-.5,2.4-.5,2.4-.2.2-.3.6-.3.6-.5.2-.6.7-.6.7v2.7l-.3.6v.9h-.4l-.3.7v1.8h-.1v.5h.1v3.7h-.5l-.3-.8h-.3l-.4,1.7v3.4l-.6,1.6v2.3h-.4v.4l-.3.6v8.1h-.3l-.4,1.9v5.7h-.2v1.3h.2v16.7h-12.9v-2.1l.3-.4v-1.4l-.6-.8h-.2v-1.2l-.2-.2v-3.7l-.6-.9v-2.5s.2-.7-.7-1.2c0,0-.4-.3-.4-1,0,0,.2-.3,0-.7-.2-.4-.3-1-.3-2,0,0,0-1.4,0-1.4s0,1.4,0,1.4c0,1-.1,1.6-.3,2-.2.4,0,.7,0,.7,0,.8-.4,1-.4,1-.9.5-.7,1.2-.7,1.2v2.5l-.6.9v3.7l-.2.2v1.2h-.2l-.6.8v1.4l.3.4v2.1h-6.3v-2.1h-.3v2.8l-4.7,6.4h-.8v-.6c.1,0,.1-1.2.1-1.2h-.6v-3.5l-.5-.7v-3.3l.3-.4v-1.4l-.6-.8h-.2v-1.2l-.2-.2v-3.7l-.6-.9v-2.5s.2-.7-.7-1.2c0,0-.5-.3-.5-1,0,0,.2-.3,0-.7-.2-.4-.3-1-.3-2,0,0,0-1.4,0-1.4s0,1.4,0,1.4c0,1-.1,1.6-.3,2-.2.4,0,.7,0,.7,0,.8-.4,1-.4,1-.9.5-.7,1.2-.7,1.2v2.5l-.6.9v3.7l-.2.2v1.2h-.2l-.6.8v1.4l.3.4v3.3l-.5.7v3.5h-.6v1.2l.2,1h.7v2.4h-25.4l-1.3-3.7h-.2v-1.5h.2v-1.4h-1.8v-3.2c0,.2,0,.3.1.4,0,0,0,0,.2,0,.2,0,.6-.2.7-.6.1-.4,0-.7-.3-1-.2-.3-.4-.7-.4-1.2,0-.8-.2-1.7-.3-2v-.4s0,0,0-.1,0,0,0-.1h0c0,0,0-.1,0-.1s0,0,0,0h0c0,0,0,0,0,.2s0,0,0,.1v8.1h-1.8v1.4h.2v1.5h-.2l-.4,1.1v-14h-4.5v-3.4h-4.7v-7.3c0,0,0-.1-.1-.1s-.1,0-.1.1v7.3h-1.9v3.4h-4.5v31.6h-1.3v-21.3s-2.3-1.8-9-2v-6.4h-1.8v-1.6h-.8v-7s0,0-.1,0,0,0,0,0v7h-.8v3.3h-1.5v-3.3h-.8v-7s0,0-.1,0,0,0,0,0v7h-.8v1.6h-1.8v6.4c-.7,0-1.4,0-2,.1l-.5-15.1,3.7-1.9s.1,0,0-.3c0-.3-.3-1.4-.3-1.4,0,0,0-.3-.6-.3h-1v-1.8c0,0,.7-.1.7-.5v-1h-7.9v1c0,.4.8.5.8.5v1.8h-1c-.6,0-.6.3-.6.3,0,0-.2,1.1-.3,1.4,0,.3,0,.3,0,.3l3.7,1.9-.5,15.7c-2.4.6-3.3,1.3-3.3,1.3v18.1l-.6-.2c0-.3,0-.5,0-.6v-1.6h0v-1h-.2s0-.9,0-2.1v-1.8s-.2-.4-.2-1.2v-1.9h0l-.2-1.5s-.2-1.3-.2-2h0c0-.1-.2,0-.2,0v1.1s-.2-.2-.2-.8c0,0-.1-.4-.2-.7,0-.4-.1-.8-.1-1.2,0,0-.3,0-.3-.1v-.3h-.1s0-.2,0-.6h.2s.1,0,.2,0c0,0,0,0,0,0h0s0,0,0,0c0-.2-.2-.2-.3-.2h-.2c0-.2,0-.5,0-.9h.2s.1,0,.1,0c0,0,0,0,0,0,0,0,0,0,0,0,0,0,0,0,0,0,0-.2-.2-.2-.3-.2h-.2c0-.3,0-.6,0-.9h.2s.1,0,.2,0c0,0,0,0,0,0h0s0,0,0,0c0-.2-.2-.2-.3-.2h-.2c0-.3,0-.6,0-.9h.1s.1,0,.1,0c0,0,0,0,0,0h0s0,0,0,0c0-.2-.2-.2-.3-.2h-.2c0-.3,0-.6,0-.9h.1s.1,0,.1,0c0,0,0,0,0,0h0s0,0,0,0c0-.2-.2-.2-.3-.2h-.1v-.9s.1,0,.1,0c0,0,.1,0,.1,0,0,0,0,0,0,0h0s0,0,0,0c0-.2-.2-.2-.3-.2h-.1c0-.3,0-.6,0-.9h.1s.1,0,.2,0c0,0,0,0,0,0h0s0,0,0,0c0-.2-.2-.2-.3-.2h-.1c0-.5,0-1,0-1.4l-.2-.2s0-.3,0-.8h.1s.1,0,.1,0c0,0,0,0,0,0h0s0,0,0,0c0-.2-.2-.2-.3-.2h-.1c0-.3,0-.6,0-.9h.1s.1,0,.1,0c0,0,0,0,0,0h0s0,0,0,0c0-.2-.2-.2-.3-.2h-.1c0-.3,0-.6,0-.9h.1s.1,0,.1,0c0,0,0,0,0,0h0s0,0,0,0c0-.2-.2-.2-.3-.2h-.1c0-.3,0-.6,0-.9h.1s.1,0,.2,0c0,0,0,0,0,0h0s0,0,0,0c0-.2-.2-.2-.3-.2h-.1c0-.3,0-.6,0-.9h0s.1,0,.2,0c0,0,0,0,0,0s0,0,0,0c0,0,0,0,0,0,0-.2-.2-.2-.3-.2h0c0-.3,0-.6,0-.9h-.2c0-.1,0-.4,0-.9h0s.1,0,.1,0c0,0,0,0,0,0h0s0,0,0,0c0-.2-.2-.2-.3-.2h-.1c0-.2,0-.5,0-.8h.1s.1,0,.2,0c0,0,0,0,0,0h0s0,0,0,0c0-.2-.2-.2-.3-.2h-.1c0-.3,0-.5,0-.8h.1s.1,0,.2,0c0,0,0,0,0,0h0s0,0,0,0c0-.2-.2-.2-.3-.2h-.1c0-.3,0-.5,0-.8h.1s.1,0,.2,0c0,0,0,0,0,0h0s0,0,0,0c0-.2-.2-.2-.3-.2h-.1c0-.3,0-.5,0-.8h.1s.1,0,.2,0c0,0,0,0,0,0h0s0,0,0,0c0-.2-.2-.2-.3-.2h0c0-.8,0-1.7,0-2.4,0,0,0-.4.4-.5h.5c0,0-.2-.2-.2-.2h.2v-.2h-.8v-.5h0s0-.4,0-.9h0c0-.2.1-.3.1-.4,0-.2-.2-.3-.3-.3s-.3.1-.3.3,0,.2.1.3h0c0,.6,0,1,0,1h0v.5h-.8c0,0,.2.2.2.2h-.2v.2h.5c.4,0,.4.5.4.5,0,.7,0,1.5,0,2.4h-.1c-.1,0-.3,0-.3.2,0,0,0,0,0,0h0s0,0,0,0c0,0,.1,0,.1,0h.1c0,.3,0,.5,0,.8h-.1c-.1,0-.3,0-.3.2,0,0,0,0,0,0h0s0,0,0,0c0,0,.1,0,.1,0h.1c0,.3,0,.5,0,.8h-.1c-.1,0-.3,0-.3.2,0,0,0,0,0,0t0,0s0,0,0,0c0,0,.1,0,.1,0h.1c0,.3,0,.5,0,.8h-.1c-.1,0-.3,0-.3.2,0,0,0,0,0,0h0s0,0,0,0c0,0,.1,0,.1,0h.1c0,.3,0,.6,0,.8h-.1c-.1,0-.3,0-.3.2,0,0,0,0,0,0h0s0,0,0,0c0,0,.1,0,.1,0h0c0,.5,0,.8,0,.8h-.2c0,.4,0,.7,0,1h0c-.1,0-.3,0-.3.2,0,0,0,0,0,0,0,0,0,0,0,0,0,0,0,0,0,0,0,0,.1,0,.1,0h0c0,.3,0,.6,0,.9h0c-.1,0-.3,0-.3.2,0,0,0,0,0,0h0s0,0,0,0c0,0,.1,0,.1,0h.1c0,.3,0,.6,0,.9h-.1c-.1,0-.3,0-.3.2,0,0,0,0,0,0h0s0,0,0,0c0,0,.1,0,.1,0h.1c0,.3,0,.6,0,.9h-.1c-.1,0-.3,0-.3.2,0,0,0,0,0,0h0s0,0,0,0c0,0,.1,0,.1,0h.1c0,.3,0,.6,0,.9h-.1c-.1,0-.3,0-.3.2,0,0,0,0,0,0h0s0,0,0,0c0,0,.1,0,.1,0h.1c0,.5,0,.8,0,.8l-.2.2c0,.4,0,.9,0,1.4h-.1c-.1,0-.3,0-.3.2,0,0,0,0,0,0h0s0,0,0,0c0,0,.1,0,.1,0h.1c0,.3,0,.6,0,.9h-.1c-.1,0-.3,0-.3.2,0,0,0,0,0,0h0s0,0,0,0c0,0,.1,0,.1,0h.2v.9h-.2c-.1,0-.3,0-.3.2,0,0,0,0,0,0h0s0,0,0,0c0,0,.1,0,.1,0h.1c0,.3,0,.6,0,.9h-.1c-.1,0-.3,0-.3.2,0,0,0,0,0,0h0s0,0,0,0c0,0,.1,0,.2,0h.1c0,.3,0,.6,0,.9h-.2c-.1,0-.3,0-.3.2,0,0,0,0,0,0h0s0,0,0,0c0,0,.1,0,.1,0h.2c0,.3,0,.6,0,.9h-.2c-.1,0-.3,0-.3.2s0,0,0,0c0,0,0,0,0,0,0,0,0,0,0,0,0,0,.1,0,.2,0h.2c0,.3,0,.7,0,.9h-.2c-.1,0-.3,0-.3.2,0,0,0,0,0,0h0s0,0,0,0c0,0,.1,0,.1,0h.2c0,.3,0,.6,0,.6h-.1v.3c0,.2-.3.1-.3.1,0,.4,0,.8-.1,1.2,0,.4-.2.7-.2.7,0,.6-.2.8-.2.8v-1.1h-.2c0,0,0,0,0,0,0,.7-.2,2-.2,2l-.2,1.5h0v1.9c0,.8-.2,1.2-.2,1.2v1.8c0,1.2,0,2.1,0,2.1h-.1v.7s-37.2-12.1-37.2-12.1l-.4-.3-.8-.2v-2.4c0,0-1-.4-1-.4l-.4.2-.4,2.9-1.6,1.7s0,0,0,.1l-18.4,19.3c0,0-.2-.2-.2-.3s0,0,0,0,0,0,0,0c.2-.1.4-.3.4-.9h.1c0,0,0,0,0,0v-.4c0,0,0,0,0,0h-.1v-.8c0,0,0,0,0,0h-.1v-1.3h.1c0,0,0,0,0,0v-.5h1.1s0,0,0,0v-.6l.3-.7s0,0,0,0c0,0,0,0,0,0v-.3c0,0,0,0,0,0h-.2s0,0-.1,0c-.2,0-.1-.2,0-.3s.3-.3.3-.4.2,0,.2,0,.1,0,0-.2c-.1-.1-.3,0-.3,0,0,0-.2.2-.2,0s-.1-.3-.2-.4c-.1,0-.1-.2,0-.2s.3.1.3,0,0-.1-.2-.2c-.1,0-.1-.3-.3-.2-.1,0-.2.3-.3.3s-.2,0-.1-.1.4-.6,0-.6-.7.2-.7.5,0,.7.5,1c.4.2-.5-.1-.6.2,0,.3,0,.3,0,.4,0,0,0,0,0,0l-18.5-5c0,0,0,0,0-.2,0-.3,0-.5-.2-.5s-.4,0-.3,0c0,0,.4-.3.4-.8s-.4-.6-.6-.3c-.2.3.3.7-.1.3,0,0-.1-.2-.4-.1,0,0,0-.9-.5-.9v-1.7c0,.2.2.4.2.7,0,.2.2.4.4.4s.2,0,.2,0c.2-.2.2-.4.2-.8s-.1-.9-.4-1.3c-.2-.2-.2-.4-.1-.7,0-.2,0-.5,0-1-.1-.8-.4-1.3-.5-1.4v-.4c0,0,0,0,0-.2s0-.1,0-.1h0c0,0,0,0,0,0s0,0,0,0h0c0,0,0,0,0,.2s0,.1,0,.2v6.3c-.6,0-.5.9-.5.9-.3,0-.4.1-.4.1-.4.3,0,0-.1-.3-.2-.3-.6-.1-.6.3s.3.7.3.8c0,0,0,0-.3,0s-.1.3-.2.5c0,.1,0,.2,0,.2l-18.5,5s0,0,0,0c-.1-.1,0-.1,0-.4,0-.3-1,0-.6-.2.4-.2.5-.6.5-1s-.3-.6-.7-.5,0,.6,0,.6,0,.1-.1.1-.2-.2-.3-.3c-.1,0-.1.1-.3.2-.1,0-.2,0-.2.2s.2,0,.3,0,.1.1,0,.2c-.1.1-.2.2-.2.4s0,0-.2,0c0,0-.2-.1-.3,0-.1.1,0,.2,0,.2s.2-.1.2,0,.3.3.3.4.1.3,0,.3,0,0-.1,0h-.2c0,0,0,0,0,0v.3s0,0,0,0c0,0,0,0,0,0l.3.7v.6c0,0,0,0,0,0h1.1v.5c0,0,0,0,0,0h.1v1.3h-.1c0,0,0,0,0,0v.8h-.1c0,0,0,0,0,0v.4s0,0,0,0h0c0,.5.3.7.4.9,0,0,0,0,0,0,0,0,0,0,0,0,0,0-.1.2-.3.3h0c0,0,0,.1,0,.2,0,.2.2.5.3.6l-.2,16.2c-.1,0,0,.2,0,.3,0,.1,0,.1,0,.1-.2,0-.2.3-.2.5h-1.3c0,0,0,0,0,0v2.1c0,0,0,0,0,0h.2c-6.8.4-12.2.8-15.9,1-3.7.3-5.7.4-5.7.4-.4,0-.6.3-.7.7h510.3c0-.7-.5-1.3-1.2-1.4"/>
  </g>
  <path class="st1" d="M143.2,38.3h0v-1.1s-.1-.8-2.5-.8v-2.7h-.5v.2h-.5v-.8c.5,0,.9-.8.9-1.8s-.4-1.7-.9-1.7v-13.1h.2v-2.8h-.2v-.7s0-.2-.3-.3v-.7h0v-6.7s0-.3-.2-.3-.2.3-.2.3v6.7h0v.7c-.4,0-.3.3-.3.3v.7h-.2v2.8h.2v13.1c-.5,0-.9.8-.9,1.7s.4,1.8.9,1.8v.8h-.5v-.2h-.5v2.7c-2.4,0-2.5.8-2.5.8v1.1h7.8"/>
  <path class="st1" d="M143.2,40.5h0v-1.2h-7.9v1.2h7.8"/>
  <path class="st1" d="M143.2,41.9h0v-1.1h-7.9v1.1h7.8"/>
  <path class="st1" d="M252.6,40c.3,0,.5-.2.5-.5s-.2-.5-.5-.5-.5.2-.5.5.2.5.5.5"/>
</svg>