<?xml version="1.0" encoding="UTF-8"?>
<svg id="katman_1" xmlns="http://www.w3.org/2000/svg" version="1.1" viewBox="0 0 460.1 52.1">
  <!-- Generator: Adobe Illustrator 29.0.1, SVG Export Plug-In . SVG Version: 2.1.0 Build 192)  -->
  <defs>
    <style>
      .st0 {
        fill: #2d2d2d;
      }
    </style>
  </defs>
  <path class="st0" d="M25.2,52.1l-1.4-.2-1.6-.6-1.5-1.3-.7-1.1-2.9-7-.4-1.5-.8-1.3-1.2-2.5-.5-1.5-1.8-3.8-.4-1.5-6.6-14.8-.5-1.5-.8-1.1-.6-1.5-.4-1.4-.7-1.1L0,2.3.6.8,1.8.3h2.8l1.5-.2,4.2.2,1.7.7,1.3,1.3,2.1,5.6,1.9,3.9,3.7,9.5,1.3,2.5.3,1.4,1.8,4h.8c0,.1.7-1.2.7-1.2l1.5-4.1.8-1.3.3-1.3.6-1.3.4-1.5,6.8-16.1,1.3-1.3,1.6-1,2.8.3h1.5c0,0,1.4-.2,1.4-.2l1.3.2h1.5c0,.1,1.3.4,1.3.4l.4,1.5-.5,2-1.4,2.6-.4,1.4-1.3,2.6-.7,1.3-6.4,15.1-1.3,2.4-.5,1.6-2.9,6.7-.8,1.3-.4,1.3-.7,1.5-.4,1.5-1.4,2.4-.4,1.5-1,2-1.6,2.1-1.8.6Z"/>
  <path class="st0" d="M74,51.8l-1.5-.4h-3.6l-2.2.3-2.9-.3-1.5.2h-2.3c0,0-2.1-.2-2.1-.2h-1.4c0,.1-1.4.1-1.4.1l-1.5-.7-.7-2,.2-6.8.8-1.3,4.9-1.5.8-2.2-.2-22.5-.7-2-1.4-.9h-1.5l-1.6-.8-.8-1.5v-1.4c.1,0,0-5.4,0-5.4l.7-1.8,1.5-.7h1.7l1.4.2h6l1.5-.3,1.3.2h8.9l1.3.8.9,1.4v7.3c0,0-.8,1.2-.8,1.2l-1.5.6-1.5.2-1.6.6-.5,1.7-.3,7.4.3,5.3v1.6c-.1,0,0,8.1,0,8.1l-.2,1.4.9,1.7,1.8.6h1.5l1.6.8.9,1.4v7.3l-.8,1.4-1.3.7h-2.9Z"/>
  <path class="st0" d="M108.2,51.7h-1.5c0-.1-1.5,0-1.5,0h-1.7c0,0-1.4-.4-1.4-.4l-3,.2h-1.3c0,0-1.6,0-1.6,0h-5.3c0,0-2.2-1-2.2-1l-.6-2v-1.6c-.1,0,0-5.1,0-5.1l-.2-1.5v-1.4c.1,0,.2-11.9.2-11.9l-.2-1.3v-6c0,0,.2-1.4.2-1.4l-.2-1.5v-7.2c.1,0,0-1.6,0-1.6l.2-3v-2.8c-.1,0,.7-1.5.7-1.5l1.5-.6h1.5c0,0,1.5,0,1.5,0h1.3c0,.1,1.4-.1,1.4-.1l1.5.2,6-.2,1.5.2h1.3c0,0,1.5,0,1.5,0h1.6c0-.1,5.9-.2,5.9-.2l1.3.3h1.5l1.5.6.6,1.4v4.4c.1,0,0,1.5,0,1.5v1.5c0,0-.7,1.3-.7,1.3l-1.5.9h-1.4c0,0-10.5,0-10.5,0l-1.4.3h-1.4c0,0-1.6.5-1.6.5l-.7,1.4v2.3l.6,2.3,1.5.6h4.3c0-.1,3.1,0,3.1,0h1.5c0-.1,4.3-.1,4.3-.1l1.7.9.7,2.1-.2,6.6-.5,1.5-1.5.6h-1.7c0,0-1.5,0-1.5,0h-3c0,0-2.8,0-2.8,0l-2.4-.2h-2.2c0,0-1.3.9-1.3.9l-.6,1.5v4.6l.6,1.3,1.5.7h1.6c0-.1,1.4,0,1.4,0h1.6c0,0,1.5,0,1.5,0l2.4-.3h3.7c0,0,1.4.3,1.4.3h1.7c0-.1,1.5.5,1.5.5l.8,1.5v7.4l-.8,1.5-1.5.7h-10.5Z"/>
  <path class="st0" d="M168,50.2l-1.1-1-1.9-2.1-11.4-11.3-1.3-.8-1-1.1-5.2-5-.9-1.2-1-.4-.5,1.3v1.5c-.1,0-.2,18.6-.2,18.6l-.8,2.3-1.5.7h-1.5c0,0-2.9-.1-2.9-.1h-1.6c0,.1-3,0-3,0l-1.5-.5-.7-1.4v-6.1c-.1,0,0-1.4,0-1.4v-12c-.1,0,0-1.3,0-1.3v-3c-.1,0,0-1.2,0-1.2V2.3l.7-1.4,1.7-.7,2.2.5,1.7.9,1.1.9,14.5,14.6,2,1.6,5.2,5.2,1.1.5.4-1.3v-13.1c.1,0,0-1.6,0-1.6l.2-3.1-.2-1.2v-1.5c0,0,.9-1.5.9-1.5l1.4-.8h9.1c0,0,1.5.7,1.5.7l.8,1.5.2,10.2-.2,1.8v7.3l.2,1.3v26.8c-.1,0-.9,1.5-.9,1.5l-1.6.5-2-.2-2-1.2Z"/>
  <path class="st0" d="M223.3,50.2l-1.1-1-1.9-2.1-11.4-11.3-1.3-.8-1-1.1-5.2-5-.9-1.2-1-.4-.5,1.3v1.5c-.1,0-.2,18.6-.2,18.6l-.8,2.3-1.5.7h-1.5c0,0-2.9-.1-2.9-.1h-1.6c0,.1-3,0-3,0l-1.5-.5-.7-1.4v-6.1c-.1,0,0-1.4,0-1.4v-12c-.1,0,0-1.3,0-1.3v-3c-.1,0,0-1.2,0-1.2V2.3l.7-1.4,1.7-.7,2.2.5,1.7.9,1.1.9,14.5,14.6,2,1.6,5.2,5.2,1.1.5.4-1.3v-13.1c.1,0,0-1.6,0-1.6l.2-3.1-.2-1.2v-1.5c0,0,.9-1.5.9-1.5l1.4-.8h9.1c0,0,1.5.7,1.5.7l.8,1.5.2,10.2-.2,1.8v7.3l.2,1.3v26.8c-.1,0-.9,1.5-.9,1.5l-1.6.5-2-.2-2-1.2Z"/>
  <path class="st0" d="M278.6,51.6h-1.5c0-.1-1.7-.9-1.7-.9l-1.5-1.1-.5-1.3-.6-1.4-1.4-1.2-1.6-.8-1.6.2h-1.3c0-.1-7.2,0-7.2,0l-1.3-.2-3.1.3-1.4-.2-1.5.8-1.4,1.4-1.3,2.4-1.4,1.3-1.7.5-4.1.2-1.5-.2-2.9.2-1.5-.5-.4-1.8.4-1.5,1.5-2.9.4-1.3.8-1,1.1-2.9,1.3-2.4.5-1.5.8-1.1.4-1.6,7.5-15.7.4-1.3.8-1.4.4-1.5.8-1.1,2.9-6.8.6-1,.5-1.5.7-1.3,1.3-1.2,2.4-.8,2.4.7,1.3,1.3,1.4,2.6.4,1.3.8,1.3.5,1.5,4.8,10.2.5,1.5,1.5,2.7.5,1.2.6,1.1.4,1.6.8,1.4.7,1.1,2.8,6.7,1.5,2.6,1,2.7,2,3.8,1.1,2.7.5,1.7-.2,1.8-2,.4h-2.3c0,0-1.4,0-1.4,0l-2.8.2ZM261.9,33.4h2.9c0,0,1.1-.7,1.1-.7l.3-1.3-3.4-8.1-1-.6-.8.7-3.4,7.9v1.4c0,0,1.2.5,1.2.5l1.7-.2,1.5.3Z"/>
  <path class="st0" d="M314,48.8v-27.5c0,0-.2-1.4-.2-1.4v-1.6c0,0,.1-2.7.1-2.7v-1.5c-.1,0,0-1.4,0-1.4V2.5l.7-1.6,1.5-.6,1.4-.2,2.9.3,1.5-.3h2.9l1.5.9.8,1.6v1.4c0,0,.1,4.2.1,4.2v2.9c-.1,0,0,1.8,0,1.8v24.9c0,0,.5,1.5.5,1.5l1.5.6h1.5c0-.1,2.9,0,2.9,0l1.3-.2,1.5.3h3c0,0,1.5.1,1.5.1l1.4-.3h1.5c0-.1,1.3.7,1.3.7l.7,2.2v5.9c0,0-.8,2.3-.8,2.3l-1.4.8h-14.5c0,0-1.6,0-1.6,0l-1.4-.2-2.8.2-2.9-.2-3.1.2h-1.5c0-.1-1.4-.9-1.4-.9l-.5-1.9Z"/>
  <path class="st0" d="M372.4,51.8l-1.5-.4h-3.6l-2.2.3-2.9-.3-1.5.2h-2.3c0,0-2.1-.2-2.1-.2h-1.4c0,.1-1.4.1-1.4.1l-1.5-.7-.7-2,.2-6.8.8-1.3,4.9-1.5.8-2.2-.2-22.5-.7-2-1.4-.9h-1.5l-1.6-.8-.8-1.5v-1.4c.1,0,0-5.4,0-5.4l.7-1.8,1.5-.7h1.7l1.4.2h6l1.5-.3,1.3.2h8.9l1.3.8.9,1.4v7.3c0,0-.8,1.2-.8,1.2l-1.5.6-1.5.2-1.6.6-.5,1.7-.3,7.4.3,5.3v1.6c-.1,0,0,8.1,0,8.1l-.2,1.4.9,1.7,1.8.6h1.5l1.6.8.9,1.4v7.3l-.8,1.4-1.3.7h-2.9Z"/>
  <path class="st0" d="M386.5,49.4v-22c0,0,0-1.7,0-1.7v-1.4c-.1,0,0-1.4,0-1.4v-1.3c.1,0,0-1.7,0-1.7v-1.3c.1,0,0-1.5,0-1.5v-1.3c-.1,0,.2-8.2.2-8.2l-.2-2.2.2-3,.4-1.3,1.6-.8h2.1c0,0,1.5,0,1.5,0h5c0,.1,2.9.1,2.9.1h2.3c0-.1,1.5,0,1.5,0l2.2-.2,1.3.2,2.9-.2,1.6.2h4.4c0,0,1.3.7,1.3.7l.9,2.2v2.8c-.1,0,0,3.7,0,3.7l-.7,1.5-1.5.7h-5.6c0-.1-1.5,0-1.5,0h-1.5c0,0-1.3,0-1.3,0h-2.1c0-.1-2.3-.1-2.3-.1l-1.4.9-.7,1.5v3.3c.1,0,0,1.4,0,1.4v2.1l.8,1.5,1.5.6h1.6c0,0,2.9.3,2.9.3l3.9-.3h3.6c0,.1,1.5.7,1.5.7l.8,1.5v6.5c0,0-.7,2.3-.7,2.3l-1.5.7h-3c0,.1-1.5,0-1.5,0h-1.5c0,0-1.5,0-1.5,0l-1.5.3-1.5-.3h-1.6c0,.1-1.5.8-1.5.8l-.7,1.5v7.8c0,0,0,1.4,0,1.4l.2,2.3-.9,2.2-1.5.6-3.7.3-5.1-.2-1.6-.7-.7-1.4Z"/>
  <path class="st0" d="M446.6,51.7h-1.5c0-.1-1.5,0-1.5,0h-1.7c0,0-1.4-.4-1.4-.4l-3,.2h-1.3c0,0-1.6,0-1.6,0h-5.3c0,0-2.2-1-2.2-1l-.6-2v-1.6c-.1,0,0-5.1,0-5.1l-.2-1.5v-1.4c.1,0,.2-11.9.2-11.9l-.2-1.3v-6c0,0,.2-1.4.2-1.4l-.2-1.5v-7.2c.1,0,0-1.6,0-1.6l.2-3v-2.8c-.1,0,.7-1.5.7-1.5l1.5-.6h1.5c0,0,1.5,0,1.5,0h1.3c0,.1,1.4-.1,1.4-.1l1.5.2,6-.2,1.5.2h1.3c0,0,1.5,0,1.5,0h1.6c0-.1,5.9-.2,5.9-.2l1.3.3h1.5l1.5.6.6,1.4v4.4c.1,0,0,1.5,0,1.5v1.5c0,0-.7,1.3-.7,1.3l-1.5.9h-1.4c0,0-10.5,0-10.5,0l-1.4.3h-1.4c0,0-1.6.5-1.6.5l-.7,1.4v2.3l.6,2.3,1.5.6h4.3c0-.1,3.1,0,3.1,0h1.5c0-.1,4.3-.1,4.3-.1l1.7.9.7,2.1-.2,6.6-.5,1.5-1.5.6h-1.7c0,0-1.5,0-1.5,0h-3c0,0-2.8,0-2.8,0l-2.4-.2h-2.2c0,0-1.3.9-1.3.9l-.6,1.5v4.6l.6,1.3,1.5.7h1.6c0-.1,1.4,0,1.4,0h1.6c0,0,1.5,0,1.5,0l2.4-.3h3.7c0,0,1.4.3,1.4.3h1.7c0-.1,1.5.5,1.5.5l.8,1.5v7.4l-.8,1.5-1.5.7h-10.5Z"/>
</svg>